<?xml version="1.0" encoding="utf-8"?>
<!-- Generator: Adobe Illustrator 19.2.0, SVG Export Plug-In . SVG Version: 6.00 Build 0)  -->
<svg version="1.1" id="Layer_1" xmlns="http://www.w3.org/2000/svg" xmlns:xlink="http://www.w3.org/1999/xlink" x="0px" y="0px"
	 viewBox="0 0 1971.2 1971.2" style="enable-background:new 0 0 1971.2 1971.2;" xml:space="preserve">
<style type="text/css">
	.st0{fill:#FFFFFF;}
	.st1{fill:#FFFFFF;stroke:#2C3E50;stroke-width:6;stroke-miterlimit:10;}
	.st2{fill:#2C3E50;}
	.st3{fill:#FC4349;}
</style>
<circle class="st0" cx="985.6" cy="985.6" r="985.6"/>
<title>google-pin</title>
<title>Layer 1</title>
<g>
	<path class="st1" d="M1301.2,158.6L514.6,260.5c-22.7,2.9-39,24-36.1,46.7l164,1264.6c2.9,22.7,24,39,46.7,36.1l786.6-101.9
		c22.7-2.9,39-24,36.1-46.7L1348.1,194.6C1345.1,171.8,1324.1,155.6,1301.2,158.6z"/>
	<path class="st2" d="M788.7,1236.1H541.3c-68.9,0-125.2,56.4-125.2,125.2v247.4c0,68.9,56.4,125.2,125.2,125.2h247.4
		c68.9,0,125.2-56.4,125.2-125.2v-247.4C914,1292.5,857.6,1236.1,788.7,1236.1z"/>
	<ellipse class="st0" cx="551.4" cy="1582.9" rx="73.2" ry="69"/>
	<ellipse class="st0" cx="551.4" cy="1392.3" rx="73.2" ry="69"/>
	<ellipse class="st0" cx="778.5" cy="1392.3" rx="73.2" ry="69"/>
	<ellipse class="st0" cx="778.5" cy="1582.9" rx="73.2" ry="69"/>
	<path class="st2" d="M1412.2,1225.5l-221.1-111.2c-61.6-31-137.2-5.9-168.1,55.7L911.8,1391c-31,61.6-5.9,137.2,55.7,168.1
		l221.1,111.2c61.6,31,137.2,5.9,168.1-55.7l111.2-221.1C1498.8,1332,1473.8,1256.4,1412.2,1225.5z"/>
	
		<ellipse transform="matrix(0.4492 -0.8934 0.8934 0.4492 -588.4907 1829.793)" class="st0" cx="1189.8" cy="1392.2" rx="69" ry="73.2"/>
	
		<ellipse transform="matrix(0.7384 -0.6743 0.6743 0.7384 -295.1728 845.9716)" class="st3" cx="942.9" cy="803.5" rx="146.1" ry="207"/>
	
		<ellipse transform="matrix(0.3023 -0.9532 0.9532 0.3023 -23.1732 1535.1826)" class="st3" cx="1037.1" cy="783.4" rx="207" ry="146.1"/>
</g>
</svg>
