<?xml version="1.0" encoding="utf-8"?>
<!-- Generator: Adobe Illustrator 19.2.0, SVG Export Plug-In . SVG Version: 6.00 Build 0)  -->
<svg version="1.1" id="Layer_1" xmlns="http://www.w3.org/2000/svg" xmlns:xlink="http://www.w3.org/1999/xlink" x="0px" y="0px"
	 viewBox="0 0 1971.2 1971.2" style="enable-background:new 0 0 1971.2 1971.2;" xml:space="preserve">
<style type="text/css">
	.st0{fill:#FFFFFF;}
	.st1{fill:#2C3E50;}
	.st2{fill:#FC4349;}
	.st3{fill:none;stroke:#2C3E50;stroke-width:30;stroke-miterlimit:10;}
</style>
<circle class="st0" cx="985.6" cy="985.6" r="985.6"/>
<title>google-pin</title>
<title>Layer 1</title>
<title>google-pin</title>
<title>Layer 1</title>
<title>google-pin</title>
<title>Layer 1</title>
<g>
	<path class="st1" d="M974.1,1184.2c0.1,22.8-19.7,42.9-42.7,43.4c-24.6,0.5-44.3-19.5-43.8-44.5c0.5-23.6,19.6-42.1,43.5-41.9
		C954.4,1141.4,974.1,1161.1,974.1,1184.2z"/>
	<path class="st1" d="M909.1,1303.2c24.2-0.5,43.2,17,44.4,40.8c1.2,23.3-20.2,45.4-43.7,45.2c-22.8-0.2-42.4-19.9-42.7-43.1
		C867,1321.8,884.6,1303.7,909.1,1303.2z"/>
	<path class="st2" d="M817.2,762.8c48.5-8.6,96.8-17.7,145.4-24.9c6.8-1,21,7.3,21.8,12.8c2.3,15.8,1.5,32.7-2.4,48.1
		c-1.4,5.4-16.3,12.5-23.1,10.8c-47.8-12.2-94.9-26.4-142.2-40.1C816.8,767.3,817,765,817.2,762.8z"/>
	<path class="st1" d="M928.9,682c-14.8,9.5-24.1,20.2-32.1,19.2c-8.2-0.9-15.2-13.1-22.6-20.3c8.2-7.5,15.7-19.7,24.8-21.2
		C906,658.7,915.1,671.1,928.9,682z"/>
	<path class="st1" d="M1062.7,682.4c-15.9,9.5-25.6,20.1-33.2,18.7c-8.2-1.5-14.4-14-21.6-21.7c7.8-7.1,15.3-19.2,23.5-19.7
		C1039.2,659.1,1047.7,670.8,1062.7,682.4z"/>
	<path class="st1" d="M929.6,1455.7c24.2-0.5,43.2,17,44.4,40.8c1.2,23.3-20.2,45.4-43.7,45.2c-22.8-0.2-42.4-19.9-42.7-43.1
		C887.5,1474.4,905.1,1456.2,929.6,1455.7z"/>
	<path class="st3" d="M1187.3,980.4c39.5-46.6,63.3-107,63.3-173c0-147.9-119.9-267.8-267.8-267.8S715,659.5,715,807.4
		c0,66,23.9,126.2,63.3,173H1187.3z"/>
	<path class="st3" d="M1213.4,1078.3H757.8c-86.3,67.7-141.8,172.9-141.8,291c0,204.2,165.4,369.6,369.6,369.6
		s369.6-165.4,369.6-369.6C1355.2,1251.2,1299.8,1146,1213.4,1078.3z"/>
	<rect x="870.9" y="232.3" class="st1" width="206.5" height="249.6"/>
	<rect x="816.6" y="444.8" class="st1" width="315.1" height="58.4"/>
	<rect x="867.2" y="374.9" class="st0" width="210.2" height="42.8"/>
</g>
</svg>
