<?xml version="1.0" encoding="utf-8"?>
<!-- Generator: Adobe Illustrator 19.2.0, SVG Export Plug-In . SVG Version: 6.00 Build 0)  -->
<svg version="1.1" id="Layer_1" xmlns="http://www.w3.org/2000/svg" xmlns:xlink="http://www.w3.org/1999/xlink" x="0px" y="0px"
	 viewBox="0 0 1971.2 1971.2" style="enable-background:new 0 0 1971.2 1971.2;" xml:space="preserve">
<style type="text/css">
	.st0{fill:#FFFFFF;}
	.st1{fill:#FC4349;}
	.st2{fill:#2C3E50;}
</style>
<circle class="st0" cx="985.6" cy="985.6" r="985.6"/>
<title>google-pin</title>
<title>Layer 1</title>
<g>
	<g>
		<path class="st1" d="M1602.9,1702.5c-40.3-8.2-64.3-36.9-81.5-72.8c-47.3-98.3-94.3-196.6-140.6-295.5
			c-27.5-58.8-53.4-118.5-80.6-179.2c16.3-8.7,31.2-16.6,48.7-25.9c9.9,15.8,20.3,31.5,29.8,47.7
			c78.5,133.5,157.2,266.9,235.1,400.7c21,36,34,73.6,11.8,112.7C1618.1,1694.3,1610.5,1698.4,1602.9,1702.5z M1596.1,1671.3
			c3.5-1.9,7.1-3.9,10.6-5.8c1-14.3,6.6-30.2,2-42.7c-6.4-17.6-24-22.2-39.7-13.5c-15.5,8.6-21.5,26-10.2,40.8
			C1567,1660.7,1583.5,1664.5,1596.1,1671.3z"/>
		<path class="st1" d="M1146.3,740.2c97.7,89.5,124.6,212,159.1,330.5c1.8,6.3-2,18.7-6.5,20.1c-6.2,2.1-18.7-0.5-22.7-5.9
			c-51.7-69.3-107-136.4-151.8-210.2c-32.5-53.5-37-117.2-36.1-177.9c17.4,11.8,34.5,23.6,51.8,35.4
			C1142,734.9,1144.1,737.6,1146.3,740.2z"/>
		<path class="st1" d="M1332.2,690.9c10.7-12.5,19.8-27.5,32.9-36.3c7.8-5.2,21.9-0.2,32.3,0.2c-5.5,18-12,28.4-11.5,39.6
			c1.8,34.4,5.6,69.1,9.8,103.7c12.3,100.9-9.5,186.9-62.9,266.4c0-10-0.6-14.3,0.1-18.2c11.4-66,9.7-134.3-11.5-202.1
			c-14.7-46.7-8-85.4,3.6-125.1c2.9-9.7,5.1-19.7,7.6-29.5C1332.5,689.6,1332.2,690.9,1332.2,690.9z"/>
		<path class="st1" d="M947,894.2c4.9,2.3,9.7,5.5,14.7,6.8c46.9,12.7,89.6,30,126.3,75.3c43.9,54.1,101,89.4,161,120.7
			c-7.3,0.6-14.5,1.9-21.9,1.6c-83.5-4.2-160.7-35.6-231.5-96.9c-24.1-20.9-48.9-40.6-74.4-59.1c-8.7-6.3-20.3-6.7-35.6-11.4
			c-10.2-20,6.5-27.3,21.5-32.2c12.7-4.2,27.4-3.1,41.3-4.3L947,894.2z"/>
		<path class="st1" d="M1053.3,825.4c73.4,52.4,106,142.1,164.6,208.3c19.8,22.4,39.3,45,56.8,69.9
			c-138.3-64.6-232.9-180.7-304.4-327c28.1,16.4,56.2,32.9,84.3,49.2L1053.3,825.4z"/>
		<path class="st1" d="M1219,642.4c82,140,125.9,283.9,105.5,439.9c-5.4-5.3-8.3-6.7-9-8.9c-24.1-72.1-44.7-145.4-73.1-216
			c-17-42.4-24.9-82.8-25.3-125.1C1216.9,702.2,1218.3,672.4,1219,642.4z"/>
		<path class="st1" d="M1323,690.5c-9.4,28-18.7,55.9-27.9,83.2c-45.9-95-46.8-125.8-0.7-175.7c10.1,33.4,19.2,63.6,28.4,93.7
			C1322.8,691.8,1323,690.5,1323,690.5z"/>
		<path class="st1" d="M1141.6,723.4c-2-2.7-4-5.4-6-8.1c5-27.1,10.1-54,15.2-82c70.3,39.4,52.6,97.3,57.2,150.5
			C1185.2,762.9,1163.4,743.1,1141.6,723.4z"/>
		<path class="st1" d="M954.3,887.7c-20.1-23.5-40.3-46.9-60.3-70.4c1.2-3.7,2.4-7.5,3.6-11.2c25.8,5.7,55.9,3.5,76.1,19.1
			c25.5,19.6,42.9,53.7,68.3,87.5c-34.5-10-61.8-17.7-89-25.6C952.9,887.1,954.3,887.7,954.3,887.7z"/>
		<path class="st1" d="M1045.9,813.2c-32.5-22.9-41.4-56.3-45.3-99.3c23.4,7.5,44.8,13.4,65.8,21.8c4.9,1.9,10,12.1,11.5,18.9
			c6.5,29.3,11.6,58.6,17.5,88.9c-16.8-10.3-33.7-20.5-50.6-30.8C1044.7,812.8,1045.9,813.2,1045.9,813.2z"/>
		<path class="st1" d="M1270.8,1114.8c20.4-10.9,41.4-22,64-34c4.1,19.3,20.5,40.3-1.3,50.1
			C1313.3,1139.9,1295,1163.3,1270.8,1114.8z"/>
	</g>
	<g>
		<path class="st2" d="M364.4,740.8c-13.1,23-6.3,47.7-6.6,71.7c-0.6,47.6,0.7,95.1,1.3,142.8c-0.6,20-1.1,40.1-1.8,60.1
			c-0.3,7.4-3.7,13.4-12.9,12.8c-7.8-0.5-9-6.6-9.3-12.3c-0.4-6.6-0.2-13.4-0.2-20.1c0-217.9,0.6-435.7-0.7-653.5
			c-0.2-27.4,9.1-32.4,36.9-32.3c239.9,0.9,480,0.6,719.9,0.6c3.7,0,7.5-0.6,11.1,0.1c8.5,1.6,22.5-4.9,23.3,8.8
			c0.6,12.7-12.2,11.3-22,11.4c-22.2,0.1-44.6,2-66.4-0.5c-30.1-3.4-52,8.4-72.5,25.4c-44.4,36.9-69,83-76.7,136.9
			c-10.3,9.1,11.7,30.2-15,33.2c-18-46.8-8.7-91.8,11.1-136c6.9-15.4,15.8-29.8,28.1-48.8c-35.3-0.3-66.9-3.6-97.4,1.5
			c-47.7,7.9-64.1,43.7-78.6,80.4c-8.2,20.9-0.4,45-16.6,64c-22.3-5-20-23.3-22.8-37.3c-7.7-38.8,6-74.3,23.9-108.6
			c-8.5-13.2-22.4-6.4-33.2-6.4c-99.5-0.6-198.9-0.4-298.3-0.3c-7.4,0.3-14.9,0.6-22.2,1.9c-7.2,0.5-13.9-0.1-18.3-6.5
			c2.5,12.9,12.7,22.9,16.8,35.4c1.2,3.7,1.8,7.4,2,11.3c3.7,111.6,0.7,223.1,1.8,334.6C369.2,721.3,366.5,731,364.4,740.8z"/>
		<path class="st2" d="M703.7,732.7c20.7-54.4,64.2-90,117.7-117.4c10.3-5.3,20.9-10.3,31.4-15.3c9.6-5.4,19.4-10.2,31.3-7.6
			c6.3-1.1,12.6-2.3,18.8-3.4c1.3,21.6,27.3,19.6,37.8,32.4c0.5,9.7-2.9,15.6-15.1,12.4c-95-3.5-163.9,36.2-214.2,106.8
			C704.5,741.2,699.8,740.4,703.7,732.7z"/>
		<path class="st2" d="M410.2,901.3c-6.7-16.7,10.3-21.1,19.5-27.6c59.2-41.7,126.3-59.3,201.2-51.3c11,4.5,26-0.5,34,11.4
			c6.1,14.4,24.8,24.8,16.6,43.7C585.9,837.3,495.4,844.5,410.2,901.3z"/>
		<path class="st2" d="M681.4,877.4c-4.4-15.3-21.2-25.7-21.2-42.9c-1.6-15.4,10.3-13.5,20.9-13.3c16.9,28.1,34.2,56.1,50.3,84.4
			c4.9,8.6,20.5,20.2,3.9,27.9c-14.9,6.9-18-10.4-24.3-18.8C701.5,902.1,695.8,886.9,681.4,877.4z"/>
		<path class="st2" d="M681.1,821.3c-6.9,4.4-13.9,8.9-20.9,13.3c-9.8-4.1-19.6-8.1-29.4-12.2c9.9-0.6,24.4,3.5,12.7-14.2
			c-17.5-26.4-33.5-53.8-50.2-80.6c3.4-6,9.2-8.6,16.4-9.1c17,25.3,33.5,50.9,51.2,75.8c5.4,7.9,6.9,19.9,21.1,20.5
			C681.7,816.8,681.4,819.1,681.1,821.3z"/>
		<path class="st2" d="M925.4,633.8c5.1-4.2,10.2-8.2,15.1-12.4c23.6,11.7,47.1,23.5,70.7,35.1c7.9,3.9,15.8,8.4,10.5,17.9
			c-6.1,10.9-14.4,4.4-21.4,0.6C975.3,661.4,950.4,647.5,925.4,633.8z"/>
		<path class="st2" d="M889.1,559.6c-12.5-8.6-11.4-21.7-13.6-33.7c11.4-8.9-0.6-24.8,12.1-33.2C888.2,515,888.7,537.4,889.1,559.6z
			"/>
		<path class="st2" d="M703.7,732.7c2.5,2.6,5,5.3,7.6,7.9c-6.6,7,0.6,26.4-21.3,19.9C696,751.8,693.7,739.7,703.7,732.7z"/>
		<path class="st2" d="M382.8,727.7c24.8-44.9,71.9-53.3,119.7-61.7c16-2.9,33.6,6.6,48-5.7c11.5-6.2,15.7-0.8,17.2,8.9
			c-2.8,11.6,7.8,19.7,9.9,29.9c1.1,5.1,10.4,14.7-5.8,14.8C505.9,685,443.2,694,382.8,727.7z"/>
		<path class="st2" d="M571.8,713.9c7.9-15-17.4-24.8-7.6-40.1c2.9-3.7,6.1-4,9.7-0.8c23.3,7.8,26.2,28.6,35.7,45.3
			c-3,6.7-9.1,8.7-16.4,9.1C586.1,722.9,579,718.4,571.8,713.9z"/>
		<path class="st2" d="M397,337.5c81.8,35.2,156.8,81.3,236.3,120.3c22.2,10.9,43.6,23.2,65.7,34.3c6.1,3,13.1,13.1,20.5,0.9
			c8.5,15,20.8,24.1,38.3,32.2c43.4,19.9,84.3,44.5,126.3,67.1c-10.4,2.5-17.5,16.6-31.3,7.6c-29.2-15.9-57.1-34.4-87.8-47.2
			c-44-18.1-83.3-0.4-119.9,21.4c-24.2,14.4-39.9,35.9-53,58.9c-3.4,1.8-6.4,1.1-8.8-1.7c-6.1-45.5,29.4-70.4,60.2-96.5
			c29-24.7,30.6-24.5-2.5-41.4c-84.2-43-165.3-91.1-252.1-129.9c-10.9-5.6-19.9-13.1-26-23.2c-1.1-3.2-0.5-6.2,2-8.8
			c3.2-5.4,8.8-6.6,14.9-6.8C385.7,328.9,391.3,333.2,397,337.5z"/>
		<path class="st2" d="M364.6,338.4c10.3,4.5,18,11.5,22.7,21c31.6,26,45.4,62.5,66.4,94.8c38,58.2,76.1,116.3,111.8,175.7
			c5.7,9.5,14.6,18.4,9.6,30.7c-0.4,4.2-0.7,8.3-1,12.5c-3.2,0.3-6.5,0.6-9.7,0.8c-0.2-8.1-4.2-13-13.7-13.5
			c-57.4-89.5-114.6-179.2-172.5-268.5c-5.8-9-8-20.8-20.3-25.8c-0.3-2.2-0.4-4.4-0.4-6.6C353.1,350.5,346.9,341,364.6,338.4z"/>
		<path class="st2" d="M397,337.5c-9-0.5-14-5.4-17.4-12.4c117.9-0.4,235.9-0.6,353.9-1c4.9,0,13.4-6.1,11.9,4.7
			c-0.5,3.5-6,6.4-9.2,9.5c-4.1-10.4-14-7-21.9-7c-99.5-0.2-198.9-0.2-298.4-0.1C408.9,331.2,400.8,329.4,397,337.5z"/>
		<path class="st2" d="M364.6,338.4c-8.8,5.2-6.9,13.4-7.3,21c-10.3-5.4-17.3-13.3-13.8-24.2c4-12.4,14.2-0.9,21.2-3.2
			C364.7,334.1,364.7,336.3,364.6,338.4z"/>
		<path class="st2" d="M574.8,660.6c7.9-7.7-1.4-21.1,11.1-27.2c2-0.7,4.1-0.7,6.1-0.2C586.2,642.4,591.6,657.2,574.8,660.6z"/>
		<path class="st2" d="M905.5,624.1c-8.4,4.6-18.1,1-17.5-4.9c1-8.9,8.6-1.1,13.1,0.2C902.9,619.9,903.9,622.3,905.5,624.1z"/>
	</g>
</g>
</svg>
