<?xml version="1.0" encoding="utf-8"?>
<!-- Generator: Adobe Illustrator 19.2.0, SVG Export Plug-In . SVG Version: 6.00 Build 0)  -->
<svg version="1.1" id="Layer_1" xmlns="http://www.w3.org/2000/svg" xmlns:xlink="http://www.w3.org/1999/xlink" x="0px" y="0px"
	 viewBox="0 0 1971.2 1971.2" style="enable-background:new 0 0 1971.2 1971.2;" xml:space="preserve">
<style type="text/css">
	.st0{fill:#FFFFFF;}
	.st1{fill:#FC4349;}
	.st2{fill:#2C3E50;}
</style>
<circle class="st0" cx="985.6" cy="985.6" r="985.6"/>
<title>google-pin</title>
<title>Layer 1</title>
<g>
	<g>
		<path class="st1" d="M1402.2,688.2c-60.4,60.1-276.9,275-337.1,335.3c10.8,13.7,28,20.4,35.4,35.4
			c63.2-63.3,275.1-274.8,338.3-338.1c3.9-3.9,7-4.6,12.4-2.8c31.6,11,60,5.1,83.8-18.7c62-61.8,123.8-123.7,185.6-185.5
			c1.8-1.8,3.2-3.8,6.1-7.4c-15.5,0-29.1,0.4-42.7-0.2c-7.8-0.3-13.3,2.2-18.8,7.8c-44.2,44.6-88.9,89-133.3,133.5
			c-9.8,9.8-21.1,15.1-35,12.7c-15.4-2.6-26.2-11.5-31-26.6c-4.9-15.5-0.6-28.9,10.8-40.2c45-45,89.9-89.9,134.8-134.9
			c2.4-2.4,6.2-5,6.3-7.7c0.6-17.1,0.3-34.2,0.3-52.6c-2.5,1.7-3.4,2.2-4.1,2.9c-63.8,63.8-127.9,127.3-191.2,191.5
			c-21.8,22.1-26.5,49.5-16.6,78.8C1408.7,678.9,1407.5,682.9,1402.2,688.2z"/>
	</g>
	<g>
		<path class="st2" d="M872.2,1033.1c-18.6-30.8-62.5-120.2-75-148.6c-29.1-57.3-5.1-54.4,43.5-41.7c26,10.4,113.3,50.7,139.6,63.5
			c3.8,1.8,7.2,4.3,11.4,7"/>
		<path class="st1" d="M803.3,1172.2c37.2,37.2,102.2,100.7,139.6,138c-28.5,23.4-233.3,195.6-286.4,150.8
			C609.5,1421.3,787.6,1199.2,803.3,1172.2z"/>
		<path class="st1" d="M942.2,1311.1l238.1-238.1c0,0,15.8-105.8-4.5-125c-20.2-19.2-134.4-13.9-134.4-13.9l-238.1,238.1
			L942.2,1311.1z"/>
		<path class="st2" d="M1057.1,1255.4c37.2-37.2,100.7-102.2,138-139.6c23.4,28.5,227.6,255,182.9,308.1
			C1338.2,1470.9,1084,1271.2,1057.1,1255.4z"/>
	</g>
	<path class="st2" d="M244.5,482.8c7.3-10,13.5-21,22.2-29.8c46.8-47.5,94.1-94.6,141.3-141.7c26.6-26.6,40.9-30.2,72.5-9.4
		c39.2,25.8,77.4,53.6,113.7,83.4c40.9,33.5,79.4,70,118.6,105.4c30.8,27.8,46.3,63.7,46.6,104.2c0.2,32.6-5.3,65.4-8.2,98
		c-0.2,2.9-1,5.8-1.3,8.6c-4.9,45.2-4.9,45.2,27.2,77.4c31.8,31.8,66.9,66.9,98.6,98.7c3.2,3.2-41,43.8-43.5,41.2
		c-35.9-36-72.9-71-107.4-108.2c-14.6-15.7-29.9-20.9-49.6-18.2c-27.6,3.8-55.1,8.6-82.9,11.4c-59.4,5.8-112.5-6.7-153.5-54.3
		c-24.2-28.1-50.4-54.5-74.3-82.7c-44.3-52.3-90.4-103.5-119.8-166.6C244.5,494.5,244.5,488.6,244.5,482.8z M650,590.3
		c4.4-3.5,11-6.2,11.7-9.8c1-5.6-0.2-13.8-3.9-17.6c-59.9-60.7-120.4-121-180.7-181.3c-6.8-6.8-14.6-9-21.8-1.4
		c-7,7.4-4.9,15,2,21.9c60.1,60,120.1,120.1,180.2,180C640.5,585.2,644.8,586.9,650,590.3z M591,650.5c4.5-4.2,10.6-7.2,11.3-11.1
		c0.9-5.2-0.6-12.9-4.2-16.5c-60-60.7-120.4-120.9-180.7-181.2c-6.8-6.8-14.4-9.3-21.8-1.8c-7.1,7.3-5.3,15,1.6,21.9
		c60.1,60,120.1,120.1,180.2,180C580.7,645.2,585.4,647,591,650.5z M530.4,710.5c4.6-4,11-6.9,11.6-10.6c0.8-5.6-0.6-13.7-4.4-17.4
		C478,622.1,417.8,562.1,357.8,502.1c-6.7-6.7-14.2-9.9-21.8-2.5c-7.9,7.7-5.5,15.6,1.7,22.8c59.8,59.7,119.5,119.5,179.4,179.1
		C520.4,704.8,525,706.8,530.4,710.5z"/>
</g>
</svg>
