<?xml version="1.0" encoding="utf-8"?>
<!-- Generator: Adobe Illustrator 19.2.0, SVG Export Plug-In . SVG Version: 6.00 Build 0)  -->
<svg version="1.1" id="Layer_1" xmlns="http://www.w3.org/2000/svg" xmlns:xlink="http://www.w3.org/1999/xlink" x="0px" y="0px"
	 viewBox="0 0 1971.2 1971.2" style="enable-background:new 0 0 1971.2 1971.2;" xml:space="preserve">
<style type="text/css">
	.st0{fill:#FFFFFF;}
	.st1{fill:#2C3E50;}
	.st2{fill:#FC4349;}
</style>
<circle class="st0" cx="985.6" cy="985.6" r="985.6"/>
<title>google-pin</title>
<title>Layer 1</title>
<g>
	<path class="st1" d="M1209,962c28.9,47.7,55.9,95.1,71.5,148.7c-2.8,1.7-4.9,3.3-7.3,4.4c-43.1,19.9-74.4,51.6-92.8,95.3
		c-3.8,9.1-8.1,11.2-16.6,7.1c-40.7-19.8-81.5-39.5-122.2-59.4c-5.8-2.8-11.1-6.7-17.7-10.8"/>
	<path class="st1" d="M1541.5,1428c-8.7,2.2-17.4,5.5-26.2,6.4c-75.4,8.2-149.1,1.4-218.8-30.4c-43.6-19.9-75.8-51.1-88.1-99.4
		c-15.7-60.9,13.3-125.9,69.4-155.4c55.8-29.3,126.6-16.4,167.5,30.7c16.1,18.5,24.8,40.4,26.2,64.5c1.3,23.1,0.2,46.3,0.8,69.4
		c0.3,13.4,0.7,27,3,40.1c5.2,29.7,23.1,49.8,50.3,62c5.3,2.4,10.7,4.8,16,7.3C1541.4,1424.9,1541.4,1426.5,1541.5,1428z"/>
	<path class="st2" d="M1376.6,703.2c-72.8-73.2-143.9-144.8-216.1-217.3c20.5-20.5,42.1-42,63.7-63.5c13.8-13.7,27.4-27.7,41.4-41.2
		c28.1-27.1,66.9-27.5,94.6-0.3c41.3,40.6,82.4,81.5,122.9,122.9c25.5,26,26.2,64.2,1.3,90.2
		C1449.2,630.8,1412.9,666.6,1376.6,703.2z"/>
	<path class="st2" d="M433.2,1427.5c15.6-88.5,30.5-173.5,45.3-257.4c70.7,71.1,141.2,142.1,211.2,212.5
		C607,1397,521.1,1412.1,433.2,1427.5z"/>
	<path class="st1" d="M922.9,621.7c-57.6,57.6-173.1,172.9-230.8,230.7c-28.2-52.3-260.4-367.5-262.5-429.8
		c-1.6-46.3,25.1-70.6,71.2-67c9.2,0.7,18.5,1.8,27.5,3.9C576.7,370.5,881.1,597.3,922.9,621.7z"/>
	
		<rect x="515.6" y="782.1" transform="matrix(0.7071 -0.7071 0.7071 0.7071 -389.0749 928.9432)" class="st2" width="822.4" height="304"/>
</g>
</svg>
