<?xml version="1.0" encoding="utf-8"?>
<!-- Generator: Adobe Illustrator 19.2.0, SVG Export Plug-In . SVG Version: 6.00 Build 0)  -->
<svg version="1.1" id="Layer_1" xmlns="http://www.w3.org/2000/svg" xmlns:xlink="http://www.w3.org/1999/xlink" x="0px" y="0px"
	 viewBox="0 0 1971.2 1971.2" style="enable-background:new 0 0 1971.2 1971.2;" xml:space="preserve">
<style type="text/css">
	.st0{fill:#FFFFFF;}
	.st1{fill:#2C3E50;}
	.st2{fill:none;stroke:#2C3E50;stroke-width:19;stroke-miterlimit:10;}
	.st3{fill:none;stroke:#2C3E50;stroke-width:15;stroke-miterlimit:10;}
	.st4{fill:#FC4349;}
</style>
<circle class="st0" cx="985.6" cy="985.6" r="985.6"/>
<title>google-pin</title>
<title>Layer 1</title>
<title>google-pin</title>
<title>Layer 1</title>
<title>google-pin</title>
<title>Layer 1</title>
<g>
	<polygon class="st1" points="1406,632.2 1374.4,698.1 1233.6,631.3 1070.9,553.3 1437.5,566.4 	"/>
	<g>
		<path class="st2" d="M679.7,333.8l-40.2,69.7c-1.2,2.1-0.5,5,1.7,6.2l0,0c2.1,1.2,5,0.5,6.2-1.7l40.2-69.6c1.2-2.1,0.5-5-1.7-6.2
			l0,0C683.7,330.8,681,331.6,679.7,333.8z"/>
		<path class="st2" d="M406.9,649.9l-63,50c-2,1.6-2.3,4.4-0.8,6.4l0,0c1.6,2,4.4,2.3,6.4,0.8l63-50c2-1.6,2.3-4.4,0.8-6.4l0,0
			C411.7,648.8,408.8,648.4,406.9,649.9z"/>
		<path class="st2" d="M378.7,569.8l-80.3-3.3c-2.5-0.1-4.6,1.9-4.7,4.4l0,0c-0.1,2.5,1.9,4.6,4.4,4.7l80.3,3.3
			c2.5,0.1,4.6-1.9,4.7-4.4l0,0C383.1,572.1,381.2,569.9,378.7,569.8z"/>
		<path class="st2" d="M459.3,410.6l-44.7-66.7c-1.4-2.1-4.3-2.7-6.3-1.2l0,0c-2.1,1.4-2.7,4.3-1.2,6.3l44.7,66.8
			c1.4,2.1,4.3,2.7,6.3,1.2l0,0C460.2,415.5,460.7,412.7,459.3,410.6z"/>
		<path class="st2" d="M550.3,302.2l-3.3,80.3c-0.1,2.5,1.9,4.6,4.4,4.7l0,0c2.5,0.1,4.6-1.9,4.7-4.4l3.3-80.3
			c0.1-2.5-1.9-4.6-4.4-4.7l0,0C552.5,297.7,550.4,299.6,550.3,302.2z"/>
		<path class="st2" d="M324.1,442.5l75,29c2.3,0.9,5-0.3,5.9-2.6l0,0c0.9-2.3-0.3-5-2.6-5.9l-75-29c-2.3-0.9-5,0.3-5.9,2.6l0,0
			C320.5,438.9,321.7,441.6,324.1,442.5z"/>
		<circle class="st3" cx="559.4" cy="556.9" r="146.7"/>
		<path class="st2" d="M828.9,581.1L828.9,581.1c0.1-2.5-1.9-4.6-4.4-4.7l-80.3-2.8c-2.5-0.1-4.6,1.9-4.7,4.4l0,0
			c-0.1,2.5,1.9,4.6,4.4,4.7l80.3,2.8C826.6,585.6,828.9,583.6,828.9,581.1z"/>
		<path class="st2" d="M462.8,709.5L462.8,709.5c-2.2-1.2-5-0.4-6.2,1.7L416.7,781c-1.2,2.2-0.4,5,1.7,6.2l0,0
			c2.2,1.2,5,0.4,6.2-1.7l39.8-69.9C465.7,713.6,464.9,710.8,462.8,709.5z"/>
		<path class="st2" d="M636.3,729.4L636.3,729.4c-2.3,1-3.3,3.7-2.3,6l33,73.3c1,2.3,3.7,3.3,6,2.3l0,0c2.3-1,3.3-3.7,2.3-6
			l-33.1-73.3C641.2,729.4,638.5,728.3,636.3,729.4z"/>
		<path class="st2" d="M792.2,435.8L792.2,435.8c-1.3-2.1-4.2-2.8-6.3-1.3l-67.6,43.5c-2.1,1.3-2.8,4.2-1.3,6.3l0,0
			c1.3,2.1,4.2,2.8,6.3,1.3l67.6-43.5C793,440.7,793.6,437.8,792.2,435.8z"/>
		<path class="st2" d="M788.6,710.3L788.6,710.3c1.2-2.2,0.4-5-1.7-6.2L717,664.2c-2.2-1.2-5-0.4-6.2,1.7l0,0
			c-1.2,2.2-0.4,5,1.7,6.2l69.9,39.8C784.6,713.3,787.4,712.5,788.6,710.3z"/>
		<path class="st2" d="M547.1,834.8L547.1,834.8c2.5,0.5,4.9-1.2,5.3-3.6l15.2-78.9c0.5-2.5-1.2-4.9-3.6-5.3l0,0
			c-2.5-0.5-4.9,1.2-5.3,3.6l-15.1,78.9C543,831.9,544.7,834.3,547.1,834.8z"/>
	</g>
	<polygon class="st4" points="1406,632.2 1374.4,698.1 1514.6,766.1 1677.3,844.1 1437.5,566.4 	"/>
	<polygon class="st1" points="1526.8,771.1 1374.4,698.1 1227,1005.3 1056.3,1361.4 1677.6,843.5 	"/>
	<polygon class="st4" points="1222.4,626 1374.4,698.1 1225.2,1009.2 1056.3,1361.4 1070.9,553.3 	"/>
	<g>
		<path class="st1" d="M1043.6,1395.3c-22.5,5.6-43.6,10.8-64.7,16.2c-3.9,1-7.6,3.3-11.3,5.2c-25.8,13.8-35.2,31.6-30.8,58.3
			c4.2,25.2,16.3,46.4,29.1,67.1c13.3,21.4,24,44.2,28.4,70.1c10.2,60.9-23.2,113.8-85.4,135.3c-20.4,7-40.8,9.9-61.2,8.5
			c-55.2-3.6-98.7-28.6-138.7-62.5c8.8-9.9,17.2-19.2,25.1-27.9c17.4,11.4,33.4,23.2,50.9,32.8c30.1,16.4,63,26,100.6,18.1
			c10.9-2.3,22-6.5,32.2-11.8c29.2-15.4,43.4-40.8,40.9-71.7c-2-26.2-12.6-48.4-25.7-69.5c-14.9-24.1-28.2-49.2-33.1-78.6
			c-7.1-42.6,10.4-76.5,51.2-99.4c30.4-17,62.3-22.9,95.6-24.3C1045.7,1373.9,1044.6,1386,1043.6,1395.3z"/>
	</g>
</g>
</svg>
