<?xml version="1.0" encoding="utf-8"?>
<!-- Generator: Adobe Illustrator 19.2.0, SVG Export Plug-In . SVG Version: 6.00 Build 0)  -->
<svg version="1.1" id="Layer_1" xmlns="http://www.w3.org/2000/svg" xmlns:xlink="http://www.w3.org/1999/xlink" x="0px" y="0px"
	 viewBox="0 0 1971.2 1971.2" style="enable-background:new 0 0 1971.2 1971.2;" xml:space="preserve">
<style type="text/css">
	.st0{fill:#FFFFFF;}
	.st1{fill:none;stroke:#57744B;stroke-width:46;stroke-miterlimit:10;}
	.st2{fill:none;stroke:#2C3E50;stroke-width:19;stroke-miterlimit:10;}
	.st3{fill:none;stroke:#2C3E50;stroke-width:15;stroke-miterlimit:10;}
</style>
<circle class="st0" cx="985.6" cy="985.6" r="985.6"/>
<title>google-pin</title>
<title>Layer 1</title>
<title>google-pin</title>
<title>Layer 1</title>
<title>google-pin</title>
<g>
	<polygon class="st1" points="864.5,1436.5 496.1,1436.5 680.3,928.8 864.5,421.2 1048.7,928.8 1232.9,1436.5 	"/>
	<polygon class="st1" points="1096.6,1531.3 728.2,1531.3 912.4,1023.6 1096.6,516 1280.8,1023.6 1465,1531.3 	"/>
	<polygon class="st1" points="1321,1436.5 952.6,1436.5 1136.8,928.8 1321,421.2 1505.2,928.8 1689.5,1436.5 	"/>
	<g>
		<path class="st2" d="M616.8,294.5l-34.9,60.4c-1.1,1.9-0.5,4.3,1.5,5.4l0,0c1.9,1.1,4.3,0.5,5.4-1.5l34.9-60.4
			c1.1-1.9,0.5-4.3-1.5-5.4l0,0C620.3,292,617.8,292.7,616.8,294.5z"/>
		<path class="st2" d="M380.1,568.8l-54.7,43.3c-1.7,1.4-2,3.9-0.7,5.6l0,0c1.4,1.7,3.9,2,5.6,0.7l54.7-43.3c1.7-1.4,2-3.9,0.7-5.6
			l0,0C384.2,567.8,381.8,567.5,380.1,568.8z"/>
		<path class="st2" d="M355.6,499.4l-69.7-2.9c-2.2-0.1-4,1.6-4.1,3.8l0,0c-0.1,2.2,1.6,4,3.8,4.1l69.7,2.9c2.2,0.1,4-1.6,4.1-3.8
			l0,0C359.4,501.3,357.8,499.4,355.6,499.4z"/>
		<path class="st2" d="M425.6,361.2l-38.8-57.9c-1.2-1.9-3.7-2.3-5.5-1.1l0,0c-1.9,1.2-2.3,3.7-1.1,5.5l38.8,58
			c1.2,1.9,3.7,2.3,5.5,1.1l0,0C426.4,365.5,426.8,363,425.6,361.2z"/>
		<path class="st2" d="M504.5,267.1l-2.9,69.7c-0.1,2.2,1.6,4,3.8,4.1l0,0c2.2,0.1,4-1.6,4.1-3.8l2.9-69.7c0.1-2.2-1.6-4-3.8-4.1
			l0,0C506.4,263.2,504.6,264.9,504.5,267.1z"/>
		<path class="st2" d="M308.2,388.8l65.1,25.1c2,0.8,4.3-0.2,5.1-2.2l0,0c0.8-2-0.2-4.3-2.2-5.1l-65.1-25.1c-2-0.8-4.3,0.2-5.1,2.2
			l0,0C305.2,385.8,306.2,388.1,308.2,388.8z"/>
		<circle class="st3" cx="512.4" cy="488.1" r="127.3"/>
		<path class="st2" d="M746.3,509.2L746.3,509.2c0.1-2.2-1.6-4-3.9-4.1l-69.7-2.5c-2.2-0.1-4,1.6-4.1,3.9l0,0
			c-0.1,2.2,1.6,4,3.9,4.1l69.7,2.5C744.3,513,746.2,511.3,746.3,509.2z"/>
		<path class="st2" d="M428.6,620.5L428.6,620.5c-1.9-1.1-4.3-0.4-5.4,1.5l-34.6,60.6c-1.1,1.9-0.4,4.3,1.5,5.4l0,0
			c1.9,1.1,4.3,0.4,5.4-1.5l34.6-60.6C431.1,624,430.4,621.6,428.6,620.5z"/>
		<path class="st2" d="M579.1,637.8L579.1,637.8c-2,0.8-2.9,3.2-2,5.2l28.6,63.6c0.8,2,3.2,2.9,5.2,2l0,0c2-0.8,2.9-3.2,2-5.2
			l-28.6-63.6C583.4,637.8,581.1,636.9,579.1,637.8z"/>
		<path class="st2" d="M714.4,383.1L714.4,383.1c-1.2-1.9-3.6-2.4-5.5-1.2l-58.7,37.7c-1.9,1.2-2.4,3.6-1.2,5.5l0,0
			c1.2,1.9,3.6,2.4,5.5,1.2l58.7-37.7C715.1,387.3,715.6,384.8,714.4,383.1z"/>
		<path class="st2" d="M711.3,621.2L711.3,621.2c1.1-1.9,0.4-4.3-1.5-5.4l-60.6-34.6c-1.9-1.1-4.3-0.4-5.4,1.5l0,0
			c-1.1,1.9-0.4,4.3,1.5,5.4l60.6,34.6C707.8,623.8,710.2,623.1,711.3,621.2z"/>
		<path class="st2" d="M501.8,729.3L501.8,729.3c2.2,0.5,4.2-1,4.6-3.2l13.2-68.5c0.5-2.2-1-4.2-3.2-4.6l0,0c-2.2-0.5-4.2,1-4.6,3.2
			l-13.2,68.5C498.2,726.8,499.6,728.9,501.8,729.3z"/>
	</g>
</g>
<title>Layer 1</title>
</svg>
