<?xml version="1.0" encoding="utf-8"?>
<!-- Generator: Adobe Illustrator 19.2.0, SVG Export Plug-In . SVG Version: 6.00 Build 0)  -->
<svg version="1.1" id="Layer_1" xmlns="http://www.w3.org/2000/svg" xmlns:xlink="http://www.w3.org/1999/xlink" x="0px" y="0px"
	 viewBox="0 0 1971.2 1971.2" style="enable-background:new 0 0 1971.2 1971.2;" xml:space="preserve">
<style type="text/css">
	.st0{fill:#FFFFFF;}
	.st1{fill:#2C3E50;}
	.st2{fill:#FC4349;}
</style>
<circle class="st0" cx="985.6" cy="985.6" r="985.6"/>
<title>google-pin</title>
<title>Layer 1</title>
<g>
	<g>
		<polygon class="st1" points="626.5,512 573.7,592.7 856.1,1238.2 1527.8,1238.2 1527.8,1157.5 908.9,1157.5 		"/>
		<path class="st1" d="M1003.5,1259c-66.8,0-121,54.2-121,121s54.2,121,121,121c66.8,0,121-54.2,121-121
			C1124.5,1313.2,1070.4,1259,1003.5,1259z M1003.5,1420.4c-22.3,0-40.3-18.1-40.3-40.3c0-22.2,18.1-40.3,40.3-40.3
			c22.3,0,40.3,18.1,40.3,40.3C1043.8,1402.3,1025.8,1420.4,1003.5,1420.4z"/>
		<path class="st1" d="M1406.8,1259c-66.8,0-121,54.2-121,121s54.2,121,121,121s121-54.2,121-121
			C1527.8,1313.2,1473.7,1259,1406.8,1259z M1406.8,1420.4c-22.2,0-40.3-18.1-40.3-40.3c0-22.2,18.1-40.3,40.3-40.3
			s40.3,18.1,40.3,40.3C1447.1,1402.3,1429,1420.4,1406.8,1420.4z"/>
		
			<rect x="831.2" y="647" transform="matrix(0.9141 -0.4054 0.4054 0.9141 -285.7517 429.7283)" class="st1" width="80.7" height="484.9"/>
		
			<rect x="1320" y="849.1" transform="matrix(0.4054 -0.9141 0.9141 0.4054 115.9198 1957.1532)" class="st1" width="484.9" height="80.7"/>
		<rect x="933.8" y="1046.6" class="st1" width="567" height="80.7"/>
		<circle class="st0" cx="1003.5" cy="1380.1" r="70.6"/>
		<circle class="st0" cx="1406.8" cy="1380.1" r="70.6"/>
		<rect x="480" y="424.5" transform="matrix(0.5 -0.866 0.866 0.5 -178.6038 713.3248)" class="st1" width="97" height="173.7"/>
		<rect x="734.5" y="645.2" class="st1" width="963.6" height="37.4"/>
		<rect x="804.1" y="781.1" class="st1" width="804.4" height="37.4"/>
		<rect x="883.6" y="933.5" class="st1" width="667.7" height="37.4"/>
		<rect x="1055.5" y="645.2" class="st1" width="37.4" height="471.2"/>
		<rect x="1337.5" y="645.2" class="st1" width="37.4" height="471.2"/>
	</g>
	<g>
		<path class="st2" d="M404.6,1325.2c0,10.1-0.1,19.3,0,28.5c0.4,25,20.1,44.9,44.8,45.2c25,0.3,45.5-19.3,46.3-44.6
			c0.4-9.5,0.1-19,0.1-29c32.8,0,65.1,0,98.5,0c0,9.5-0.4,19.1,0.1,28.7c0.7,18.4,9.4,32.2,26,40.2c16.7,8,32.9,6,47.6-5.3
			c11.4-8.7,17.2-20.7,17.5-35.1c0.2-9.4,0-18.9,0-28.9c2.9-0.2,5.2-0.4,7.4-0.4c36.6,0,73.2,0,109.8,0c11.7,0,14.5,3.6,11.7,14.9
			c-25.9,105.7-51.8,211.4-77.8,317.2c-5.7,23.2-23.5,37.1-47.5,37.1c-96.6,0-193.4,0-290,0c-23.5,0-41.4-13.9-47-36.8
			c-26-106-52-211.8-78-317.8c-2.6-10.9,0.3-14.7,11.4-14.7c37.3,0,74.6,0,111.9,0C399.5,1324.9,401.6,1325.1,404.6,1325.2z"/>
		<path class="st2" d="M428.6,1304.8c0-19.5-1.9-39.1,0.4-58.3c6.5-54.3,55.2-97.6,109.9-99.8c57.7-2.3,108.8,36.2,120.7,91.4
			c1.8,8.5,2.8,17.4,2.9,26.1c0.4,29,0.2,58,0.1,86.9c0,14.6-9.3,24.8-22.6,25c-13.5,0.1-23-10.2-23-25.3c-0.1-28.3,0-56.5,0-84.8
			c-0.1-39.2-28.3-70.6-66-73.6c-37.9-3.1-70.9,23.1-77.3,61.7c-0.9,5.3-0.7,10.9-0.7,16.3c-0.1,27.4,0.1,54.6-0.1,82
			c-0.1,11-5.9,19.1-15.4,22.5c-9.1,3.2-19.4,0.7-24.8-7.2c-2.9-4.3-4.9-10-5.1-15c-0.6-15.9-0.3-31.8-0.3-47.7
			C427.7,1304.8,428.2,1304.8,428.6,1304.8z"/>
	</g>
</g>
</svg>
