<?xml version="1.0" encoding="utf-8"?>
<!-- Generator: Adobe Illustrator 19.2.0, SVG Export Plug-In . SVG Version: 6.00 Build 0)  -->
<svg version="1.1" id="Layer_1" xmlns="http://www.w3.org/2000/svg" xmlns:xlink="http://www.w3.org/1999/xlink" x="0px" y="0px"
	 viewBox="0 0 1971.2 1971.2" style="enable-background:new 0 0 1971.2 1971.2;" xml:space="preserve">
<style type="text/css">
	.st0{fill:#FFFFFF;}
	.st1{fill:#2C3E50;}
	.st2{fill:#FC4349;}
</style>
<circle class="st0" cx="985.6" cy="985.6" r="985.6"/>
<title>google-pin</title>
<title>Layer 1</title>
<title>google-pin</title>
<title>Layer 1</title>
<title>google-pin</title>
<title>Layer 1</title>
<g>
	<path class="st1" d="M448.4,970.3c0.5-2,1.2-3.9,1.4-5.9c4.1-36,16.5-68.9,36.9-98.8c20.4-29.9,46.4-54,78.6-70.4
		c31.5-16.1,64.4-28.2,100.9-26.2c7.8,0.4,15.6,0.2,23.3,0.2c214.1,0,428.2,0,642.2,0c3.5,0,7,0,9.8,0c0,9.2,0.4,17-0.1,24.7
		c-5.8,87-15.6,173.6-30.6,259.5c-11.5,65.9-25.2,131.4-48.2,194.5c-10.9,29.8-23.7,58.6-43.7,83.7c-4.6,5.8-9.4,8.8-17.5,8.8
		c-141.9-0.3-283.9-0.4-425.8,0c-10.9,0-17.6-3.4-24-11.8c-19.5-26.1-32.2-55.5-43.1-85.8c-4.2-11.6-7.9-23.4-11.9-35.1
		c-1.7,0.1-2.7,0.2-3.7,0.3c-107.2,11.4-206.7-55.5-236.1-159.2c-3.8-13.4-5.7-27.3-8.4-41C448.4,995.2,448.4,982.8,448.4,970.3z
		 M542.2,1013.8c13.9,72.7,80,107.9,129.7,103.6c-12.3-83.9-24.6-167.9-36.9-252.4C571.7,879,529.1,945.9,542.2,1013.8z"/>
	<path class="st1" d="M1522.7,1376.7c-3.4-0.1-6.7-0.2-10.1-0.2c-350.2,0-700.5,0-1050.7,0c-3.3,0-6.6,0-11.7,0
		c3.4,6.2,5.9,11.2,8.9,15.9c17.8,27.4,42.8,47.1,70.3,63.7c27.7,16.7,57.1,29.4,88.5,37.4c1.2,0.3,2.3,1.1,3.4,1.6
		c243.4,0,486.8,0,730.2,0c1.4-0.6,2.8-1.2,4.2-1.7c68.1-20.3,129.3-50.7,167-115.1C1522.7,1377.7,1522.7,1377.2,1522.7,1376.7z"/>
	<path class="st2" d="M790.9,390c-39.3,26.2-69.4,56.2-66.2,98.8c1.4,19.2,13.6,35.4,28.6,50.3c10.6,10.6,22.3,20.5,33.2,31
		c7,6.8,14,13.6,20.1,20.9c15.7,18.3,17.2,37.6,3.7,56.9c-7.1,10.2-16.5,19.4-24.9,29.1c-2,2.3-4.6,4.2-6.5,6.4
		c-6.4,7.7-4.4,17.1,4.6,22.6c8.8,5.4,21.3,5.6,29.2-0.9c24-19.9,43.4-41.9,50.1-69.1c6.5-26.2-4.1-49.4-24-70.3
		c-12.5-13.2-26.9-25.3-40.1-38.2c-6.8-6.6-13.4-13.3-19.2-20.5c-13-16-14.6-33-2.3-49.3c9.1-12.1,20.1-23.6,31.9-34.3
		c15.6-14.3,15.2-22.4-4.4-33.3C800,390,795.4,390,790.9,390z"/>
	<path class="st2" d="M983.6,390c-45.5,20.6-77.1,75.3-64.2,111.4c6.3,17.5,19.4,32.2,34.2,46c12.9,12.1,26.1,23.9,38.7,36.2
		c24,23.4,24.9,47.9,4.1,72.8c-6.8,8.1-14.5,15.7-22.2,23.3c-9.3,9.2-9.3,19.2,0.5,25.8c10.3,6.8,24.2,5.7,34-3.8
		c10.4-10.1,20.7-20.3,29.1-31.4c27.2-35.9,25-71.2-7.1-104.8c-12.6-13.2-27-25.3-40.1-38.2c-7.7-7.6-15.2-15.4-21.5-23.7
		c-10.6-14-11.9-29.2-1.8-43.2c9.6-13.3,21.5-25.8,34.1-37.5c15-14,14-23.8-6.1-32.9C991.4,390,987.5,390,983.6,390z"/>
	<path class="st2" d="M1174.3,390c-29.5,18.7-51.7,41.4-62.6,69.7c-10.1,26.4-1.3,50.5,18.9,72.2c12.3,13.3,26.8,25.4,39.9,38.3
		c8.1,8,16.2,16.1,23,24.7c12.3,15.7,13.7,32.6,2.9,48.9c-7.7,11.6-18,22.2-27.3,33.1c-1.9,2.3-4.6,4.2-6.5,6.5
		c-6.2,7.5-4.4,16.6,4.1,22.1c8.8,5.8,21.9,6,30-0.7c25.7-21.5,46.4-45.2,51.1-75c3.7-23.8-6.7-44.9-24.8-63.8
		c-12.6-13.2-26.8-25.4-40.1-38.2c-6.4-6.2-12.7-12.5-18.3-19.1c-15.1-17.6-16-36-1.9-53.9c8.7-11.2,19.2-21.7,30.3-31.6
		c15.6-14.1,14.8-22.9-4.9-33.2C1183.4,390,1178.8,390,1174.3,390z"/>
</g>
</svg>
