<?xml version="1.0" encoding="utf-8"?>
<!-- Generator: Adobe Illustrator 19.2.0, SVG Export Plug-In . SVG Version: 6.00 Build 0)  -->
<svg version="1.1" id="Layer_1" xmlns="http://www.w3.org/2000/svg" xmlns:xlink="http://www.w3.org/1999/xlink" x="0px" y="0px"
	 viewBox="0 0 1971.2 1971.2" style="enable-background:new 0 0 1971.2 1971.2;" xml:space="preserve">
<style type="text/css">
	.st0{fill:#FFFFFF;}
	.st1{fill:#FC4349;}
	.st2{fill:#FFFF50;}
	.st3{fill:#2C3E50;}
</style>
<circle class="st0" cx="985.6" cy="985.6" r="985.6"/>
<title>google-pin</title>
<title>Layer 1</title>
<g>
	<g>
		<g>
			<path class="st1" d="M1414.6,814.2c32.3-2,60.7-3.8,89.1-5.4c3.7-0.2,7.4,0.6,14.5,1.3c-4.9,53.8-9.5,106.3-14.5,158.7
				c-14.8,151.7-30,303.2-44.6,454.8c-4.6,47.6-8.4,51.7-61.7,49.9C1403.1,1254.7,1408.8,1035.9,1414.6,814.2z"/>
			<path class="st1" d="M1170.5,1461.1c-11.3-12.7-29.2-23.8-32.9-38.5C1083.8,1208.2,1032,993.4,980,779.7
				c40,11.6,79.4,23.1,125.1,36.5c27,208.6,54.7,422.7,82.4,636.8C1181.8,1455.7,1176.1,1458.4,1170.5,1461.1z"/>
			<path class="st1" d="M1151.4,812.9c33.7,2.4,63.7,4.6,97.4,7c7.4,219.9,14.8,438.5,22.2,657.1c-54.1,0.4-60-3.6-64.2-48.5
				C1188.1,1225,1170.1,1021.4,1151.4,812.9z"/>
			<path class="st1" d="M1284.6,815.6c30.6,0,56.9,0,86.1,0c0.7,6.7,2.3,14.1,2.2,21.5c-4,205.6-8.3,411.1-12.4,616.7
				c-0.3,16.9,2.3,33-24.4,33.2c-25.8,0.2-30.4-11.2-31.2-33.7c-6.2-184.8-13.6-369.6-20.2-554.4
				C1283.7,871.6,1284.6,844.3,1284.6,815.6z"/>
			<path class="st1" d="M1486.4,1450.4c27.1-214.8,53.8-426.4,80.2-636c37.2-10.2,72.8-20,109.7-30.2
				c-11.2,49.8-23,102.8-35.1,155.7c-35.2,154.3-71,308.5-105.4,463C1529.9,1429.3,1517.8,1445.5,1486.4,1450.4z"/>
		</g>
		<ellipse class="st2" cx="1105.8" cy="604.5" rx="180.1" ry="176.2"/>
		<ellipse class="st2" cx="1373" cy="581" rx="211.1" ry="218.1"/>
		<ellipse class="st2" cx="1356.6" cy="701.9" rx="355.9" ry="97.4"/>
		<ellipse class="st2" cx="1572.8" cy="629.1" rx="158.6" ry="155.2"/>
		<ellipse class="st0" cx="1329.2" cy="1096.2" rx="173.8" ry="108.5"/>
	</g>
	<g>
		<path class="st3" d="M957.4,804.3c-71.6-59.9-164.8-94.2-265.4-89.7c-213.6,9.5-379.6,190.4-370.2,403.2
			c9.5,214.3,191.2,380.5,405.3,370.7c154-7.1,283.1-104,339.2-237.7C1029.6,1101.9,993.5,952.8,957.4,804.3z M425.6,998
			c-2.1-43.4,30.1-79.2,73.2-81.3c42.4-2,78.3,30.3,80.7,72.8c2.4,42.9-30,79-73.2,81.5C464.2,1073.3,427.6,1040.1,425.6,998z
			 M515.2,1303.8c-42.2,1.6-78-31.7-79.7-74.1c-1.7-43.1,31.2-78.8,74.2-80.6c42-1.7,78.2,31.8,79.7,74
			C591.1,1266.3,558,1302.3,515.2,1303.8z M694.4,791.8c42.7-2.2,79,29.8,81.7,71.8c2.7,43.3-29.9,79.7-73.7,82.1
			c-41.9,2.3-78.6-30.9-80.6-73C619.7,830.4,652.3,794.1,694.4,791.8z M710.7,1146.1c-24.8,1-45.6-18.2-46.5-43
			c-0.9-24.7,18.7-45.8,43.1-46.6c24.4-0.9,45.7,18.9,46.7,43.2C755,1124.1,735.5,1145.1,710.7,1146.1z M722.2,1411.5
			c-41.9,1.8-78.3-31.6-80.4-73.6c-2.2-42.4,31.6-79.1,74.2-81c42.1-1.8,78.4,31.4,80.3,73.5
			C798.1,1373.2,764.7,1409.7,722.2,1411.5z M902.7,899.4c42.2-1.9,78.1,31.3,79.7,73.5c1.6,43.3-31.2,79-74,80.6
			c-42.3,1.6-78-31.5-79.7-73.7C827,936.5,859.4,901.3,902.7,899.4z M919.2,1286.4c-42.4,2.1-78.9-31.5-80.6-74.3
			c-1.7-42.5,31-78.3,73.4-80.1c42.9-1.9,78.9,31.2,80.6,74.2C994.2,1248.6,961.6,1284.3,919.2,1286.4z"/>
		<path class="st3" d="M239.9,1409.2c0.2,5.1,0.4,8.8,0.5,12.6c1.2,28.8,2.5,57.6,3.7,87.4c119.7-5.1,238.9-10.2,359.8-15.4
			c-4.3-1.6-7.2-2.8-10.2-3.7c-56.3-17.3-106.6-45.4-151-84.1c-3.3-2.9-8.6-5.4-12.9-5.2c-61.1,2.2-122.2,5-183.2,7.7
			C244.8,1408.4,243,1408.8,239.9,1409.2z"/>
	</g>
</g>
</svg>
