<?xml version="1.0" encoding="utf-8"?>
<!-- Generator: Adobe Illustrator 19.2.0, SVG Export Plug-In . SVG Version: 6.00 Build 0)  -->
<svg version="1.1" id="Layer_1" xmlns="http://www.w3.org/2000/svg" xmlns:xlink="http://www.w3.org/1999/xlink" x="0px" y="0px"
	 viewBox="0 0 1971.2 1971.2" style="enable-background:new 0 0 1971.2 1971.2;" xml:space="preserve">
<style type="text/css">
	.st0{fill:#FFFFFF;}
	.st1{fill:#FC4349;}
	.st2{fill:#FEFEFE;}
	.st3{fill:none;stroke:#FC4349;stroke-width:32;stroke-miterlimit:10;}
	.st4{fill:#2C3E50;}
</style>
<circle class="st0" cx="985.6" cy="985.6" r="985.6"/>
<title>google-pin</title>
<title>Layer 1</title>
<g>
	<path class="st1" d="M119.7,1092.7c11.8,3.8,23,9,36.3,7.6c202.4-21.4,383.5,36.7,549.7,148.4c22.7,15.3,45.7,18,71.8,17.8
		c218-2,425.3,41.7,616.9,149.2c27.7,15.5,52.9,35.6,84.2,44.2c22,6.1,40.1,4.9,54.1-18.6c102.2-172.3,205.1-344.2,308.6-515.7
		c12.1-20.1,12.1-37.8,7.5-59.9c-21-101.5-87.8-160.6-177.8-200.3c-140.2-61.8-284.8-80-434.7-44.8c-14.7,3.5-24.6,1.8-37-7.8
		c-77-59.9-160.6-97.1-256-106.6c-87.8-4.1-104-9.1-186.3,6.1c-71.3,13.3-134.7,58.7-145.5,66c-145.9,97.9-291.7,196.3-437.6,294.6
		c-20.1,13.5-42.1,25-54.2,47.6C119.7,978,119.7,1035.4,119.7,1092.7z"/>
	<path class="st2" d="M846.2,1066.8c86.9-0.7,164.8,5.5,242.1,17.1c123.9,18.5,241.2,56.2,346.1,126.2c18.5,12.3,25.6,8.1,35.6-8.2
		c84.4-138.4,168.7-277,255-414.2c14.2-22.6,5.7-30.6-11-41.1c-106.4-66.6-222.8-96.2-347.7-94.3c-15.9,0.2-31.8,1.8-47.6,2.6
		c-63.3,3.5-111.6,30.2-155.3,78.7C1062.8,845.5,956.3,952,846.2,1066.8z"/>
	<path class="st2" d="M247.5,895.5c174-2.7,332.2,22.8,474.8,112.6c4.5,2.9,9,5.7,13.5,8.5c18.7,11.2,35,37,54.1,33.7
		c17-3,30.2-27.6,44.9-42.9c106.5-111,212.6-222.6,320-332.8c16.8-17.3,15.3-23.9-4.3-36.1C1049,575.6,937.9,563.4,821,563.8
		c-96.6,0.2-164.2,54.1-236.6,102.4C480.2,735.7,376.6,806.1,272.8,876C266.3,880.6,260.1,885.8,247.5,895.5z"/>
	<path class="st2" d="M1468.8,1398.6c-3.5-39.3-14.8-74.5-24-110.2c-3.6-13.7-14.3-20.5-24.7-27.8c-94.8-65.9-200.8-103-313.8-123.5
		c-99.8-18-200.3-21-301.1-19.8c-20.2,0.2-35.8-4.8-51.7-18C634.5,1000.1,494,960,342.1,951.5c-49.9-2.7-99.6,0.2-149.2,4.2
		c-16,1.3-22.8,6-23.2,24.6c-1.4,67.2-2.4,68.3,64.8,67.1c174.7-3.2,331.2,52.2,476.2,145.7c24.7,16,49.8,21.7,80.1,22.3
		c238,4.7,465.1,51.3,668.7,182.3C1460.7,1398.6,1463.1,1398.1,1468.8,1398.6z"/>
	<path class="st2" d="M1772.6,804.1c-64.8,106.1-125.8,206.3-187.2,306.4c-27.1,44.3-54.1,88.6-82.9,131.8
		c-8.7,13.1-8.6,23.8-4.2,37.6c8.2,25.7,14.4,51.9,22.8,82.7c33.4-55.3,65.2-107.3,96.5-159.6c57.7-96.4,114.6-193.1,172.8-289.1
		c9.6-15.8,13.3-30,5.7-47.3C1788.2,848.4,1782,829.6,1772.6,804.1z"/>
	<line class="st3" x1="786.2" y1="1084" x2="760" y2="1247.9"/>
	<g>
		<g>
			<path class="st4" d="M1215.1,754.2c15.9-0.8,31.8-2.4,47.6-2.6c124.9-1.9,241.3,27.7,347.7,94.3c12.1,7.5,19.7,13.8,17.9,25.1
				c11.2-16.2,22.4-32.4,33.9-48.4c-27-23.4-59.1-42.3-94.9-58c-106.9-47.2-216.2-68.9-328.6-61c-11,14.3-22.1,28.8-33.3,42.9
				c-2.5,3.1-4.9,6.2-7.4,9.3C1203.5,755.1,1209.4,754.6,1215.1,754.2z"/>
		</g>
		<g>
			<path class="st4" d="M1095.6,712c-77-59.9-160.6-97.1-256-106.6c-57.9-2.7-84.7-5.9-119.8-3.2c-11.1,10.3-22.6,20.2-34.4,29.7
				c-7.3,5.9-14.7,11.7-22.1,17.4c7.6,4.9,14.9,10.3,22,16c10.4-1.4,21-2.1,31.9-2.1c116.9-0.4,228,11.8,329.5,74.7
				c3.1,1.9,5.7,3.7,7.9,5.4c-0.6,0.4-1.2,0.7-1.7,1.1l0,0c15-9.9,30.6-19,45.1-29.5c0.2-0.1,0.4-0.4,0.6-0.5
				C1097.7,713.5,1096.7,712.8,1095.6,712z"/>
		</g>
	</g>
	<g>
		<path class="st4" d="M1554.1,922c-27-23.4-59.1-42.3-94.9-58c-106.9-47.2-216.2-68.9-328.6-61c-11,14.3-22.1,28.8-33.3,42.9
			c-2.5,3.1-4.9,6.2-7.4,9.3c5.6-0.7,11.3-1.2,17.1-1.6c15.9-0.8,31.8-2.4,47.6-2.6c124.9-1.9,241.3,27.7,347.7,94.3
			c12.1,7.5,19.7,13.8,17.9,25.1C1531.4,954.1,1542.6,938,1554.1,922z"/>
		<g>
			<path class="st4" d="M987.5,811.3c-77-59.9-160.6-97.1-256-106.6c-57.9-2.7-84.7-5.9-119.8-3.2c-11.1,10.3-22.6,20.2-34.4,29.7
				c-7.3,5.9-14.7,11.7-22.1,17.4c7.6,4.9,14.9,10.3,22,16c10.4-1.4,20.9-2.1,31.8-2.1c116.9-0.4,228,11.8,329.5,74.7
				c3.1,1.9,5.7,3.7,7.9,5.4c-1.1,0.7-2,1.3-3.1,2c0,0,0,0.1,0.1,0.1c15.4-10.3,31.6-19.7,46.6-30.4c0.2-0.1,0.4-0.4,0.6-0.5
				C989.7,813,988.6,812.1,987.5,811.3z"/>
		</g>
	</g>
	<g>
		<g>
			<path class="st4" d="M957.1,999c-4.4,1.2-8.8,2.4-13.1,3.7C948.4,1001.4,952.8,1000.2,957.1,999z"/>
			<path class="st4" d="M1420.7,1105.7c12.1-18,24-36.1,36.1-53.8c-28.7-25.9-62.7-46.9-100.5-64.5c-113.2-52.3-229-76.4-348-67.7
				c-11.7,15.9-23.3,31.9-35.3,47.5c-2.4,3.1-4.8,6.2-7.2,9.3c0.5,0.2,1.1,0.6,1.6,1c5.3-0.7,10.5-1.2,16-1.4
				c16.7-1,33.6-2.7,50.4-3c132.3-2.1,255.5,30.8,368.2,104.7c12.8,8.4,20.9,15.3,19,27.8
				C1420.8,1105.6,1420.7,1105.7,1420.7,1105.7z"/>
		</g>
		<g>
			<path class="st4" d="M856.7,928.9c-81.5-66.5-170-107.7-271.1-118.3c-61.3-3-89.7-6.4-126.8-3.6c-11.7,11.5-23.9,22.4-36.3,33
				c-7.8,6.6-15.5,13-23.4,19.3c8.1,5.5,16,11.5,23.4,17.9c10.9-1.6,22-2.4,33.7-2.4c123.8-0.4,241.5,13.1,349,83
				c3.2,2.1,6.1,4.1,8.2,6c15.4-10.5,31.3-20.3,46.2-31.6c0.2-0.2,0.4-0.4,0.6-0.6C859,930.8,857.9,929.9,856.7,928.9z"/>
		</g>
	</g>
</g>
</svg>
