<?xml version="1.0" encoding="utf-8"?>
<!-- Generator: Adobe Illustrator 19.2.0, SVG Export Plug-In . SVG Version: 6.00 Build 0)  -->
<svg version="1.1" id="Layer_1" xmlns="http://www.w3.org/2000/svg" xmlns:xlink="http://www.w3.org/1999/xlink" x="0px" y="0px"
	 viewBox="0 0 1971.2 1971.2" style="enable-background:new 0 0 1971.2 1971.2;" xml:space="preserve">
<style type="text/css">
	.st0{fill:#FFFFFF;}
	.st1{fill:#2C3E50;}
	.st2{fill:#FC4349;}
</style>
<circle class="st0" cx="985.6" cy="985.6" r="985.6"/>
<title>google-pin</title>
<title>Layer 1</title>
<title>google-pin</title>
<title>Layer 1</title>
<title>google-pin</title>
<title>Layer 1</title>
<g>
	<path class="st1" d="M890.4,696.6c32.9,52.3,64.1,101.9,95.4,151.6c8.2,12.9,14.5,25.9,17.1,41.6c6.9,40.5-11.5,68.1-42,89.6
		c-58.9,41.9-118.5,82.9-177.8,124.2c-41.2,28.7-82.1,58.1-124,86c-37.6,25.1-93.2,18.1-120.9-13.6c-28-31.8-27.4-85.3,2.1-120.6
		c7-8.3,15.6-15.6,24.5-21.7c67.3-46.2,134.9-91.9,202.3-137.8c3.8-2.5,7.4-5.4,11.7-8.6c-1.9-3.3-3.4-6.2-5.2-9
		C722.8,801.5,673,723.9,620.8,648c-39.7-57.7-35.3-133.6,1.9-185.9c39.7-55.9,107.3-79.7,175-62.6c114.1,28.9,227.9,58,342.3,85.6
		c53.5,12.8,87.2,44.7,106.2,95.3c35.8,95.5,72.5,190.7,109.4,285.9c1.8,4.5,8.7,8.6,13.9,9.9c77.2,19.2,154.4,38,231.8,56.6
		c20.5,5,36.9,15,46.1,34.4c11.4,23.9,9.5,47.2-7.3,67.9c-16.8,20.7-39.4,27.3-65,21.1c-74.1-17.9-147.9-36.1-222-54.3
		c-27.1-6.6-54.2-13.7-81.4-19.7c-30-6.6-50.4-23.4-62.9-51.6c-24.2-54.9-49.5-109.4-74.7-164c-2-4.3-6.6-9.4-10.9-10.5
		C1046.9,736.1,970.2,716.8,890.4,696.6z"/>
	<path class="st2" d="M184.6,1203.5c4.1-16.5,7.7-31.5,11.7-47.6c4.9,1.1,9.3,1.9,13.7,3c474.8,117.2,949.7,234.5,1424.4,351.7
		c20,5,39.8,8.7,59.7,0.2c22.3-9.5,37.1-26,44.5-50.4c15.9,4,31.3,8,47.9,12.2c-11.1,39.5-34.4,67-71,83.2
		c-29.1,12.9-58.8,12.2-89.4,4.6c-194.2-48.3-388.6-96.2-582.8-144.3c-281.8-69.6-563.5-139.4-845.2-209
		C194.1,1206.1,190,1205,184.6,1203.5z"/>
	<path class="st1" d="M1441.9,699.5c-64.6,18.9-132.5-17.9-151.9-82.2c-19.1-63.9,18.1-132.8,82.2-152
		c64.7-19.5,134.3,18.5,152.5,82.9C1543.4,613.5,1506.6,680.6,1441.9,699.5z"/>
</g>
</svg>
