<?xml version="1.0" encoding="utf-8"?>
<!-- Generator: Adobe Illustrator 19.2.0, SVG Export Plug-In . SVG Version: 6.00 Build 0)  -->
<svg version="1.1" id="Layer_1" xmlns="http://www.w3.org/2000/svg" xmlns:xlink="http://www.w3.org/1999/xlink" x="0px" y="0px"
	 viewBox="0 0 1971.2 1971.2" style="enable-background:new 0 0 1971.2 1971.2;" xml:space="preserve">
<style type="text/css">
	.st0{fill:#FFFFFF;}
	.st1{fill:#2C3E50;}
	.st2{fill:#FC4349;}
	.st3{fill:#FFFFFF;stroke:#2C3E50;stroke-width:35;stroke-miterlimit:10;}
</style>
<circle class="st0" cx="985.6" cy="985.6" r="985.6"/>
<title>google-pin</title>
<title>Layer 1</title>
<g>
	<g>
		<path class="st1" d="M878.4,1064.3c-2.7-8.7-5.8-17.3-7.9-26.1c-21.2-85.1-3.2-161.3,53.2-228.2c22.8-27,51.1-46.9,83-61.8
			c136.8-64.2,273.5-128.8,410.3-192.9c104.1-48.8,232.7-16.2,300.4,76.7c54.1,74.2,64.4,155.2,31.8,241
			c-16.7,43.8-45.2,79.2-82.7,107.4c-0.9,0.7-1.7,1.5-2.6,2.3c-27.2,12.8-54.4,25.6-81.7,38.4c-1,0.1-2,0-2.9,0.2
			c-47.5,11.6-94.4,9.5-140.7-6c-2.5-0.8-6-0.5-8.5,0.5c-27.3,12.6-54.4,25.6-81.8,38.2c-3.7,1.7-5.7,4.1-7.1,7.8
			c-13.6,35.3-33.9,66.3-61.7,92.1c-8,7.4-16.6,14.2-24.9,21.3c-27.2,12.8-54.4,25.6-81.7,38.4c-0.6,0-1.4-0.2-2,0
			c-35.3,8.9-71,10.3-106.8,3.3c-64.8-12.6-116.8-45.8-155.9-99c-5.8-7.8-10.7-16.3-16.1-24.4C887.6,1083.8,883,1074.1,878.4,1064.3
			z M1237.2,711.6L1237.2,711.6c-67.3,31.5-134.6,63.4-201.9,94.9c-26,12.2-48.4,28.8-66.7,50.8c-52.1,63.1-55.6,153.5-8.5,221.1
			c47.2,67.6,134.8,95.8,212,66.9c60.9-22.8,99.4-66.8,115.6-130c0.9-3.6,2.4-5.8,5.9-7.3c45.2-21.1,90.3-42.4,135.4-63.7
			c3.2-1.5,5.8-1.5,9,0.1c18.8,9.6,38.9,15.3,59.9,17.9c70.8,8.9,144.1-26.6,178.7-88.6c37.7-67.6,35.2-134.8-8.5-198.9
			c-48-70.6-144.5-97.1-222.2-61.4C1376.1,645.6,1306.7,678.9,1237.2,711.6z"/>
		<path class="st1" d="M1413.6,253c3.2,10.4,7.2,20.7,9.4,31.2c14.3,68-0.2,119.2-42.6,153.3c-5.7,4.5-12.3,7.8-18.7,10.9
			c-39.7,18.9-79.8,37-119.2,56.5c-37.8,18.7-48.8,70.2-27.2,121.1c0.4,0.9,0.7,1.8,1.2,3.1c-14.9,7-29.7,14-44.5,21
			c-6.8-13.4-11.7-27.2-14.7-41.4c-14.2-67.9-0.2-119.3,42.3-153.5c6-4.9,13.1-8.4,20-11.7c38.4-18.3,77-36.3,115.4-54.4
			c35.9-16.9,49.8-61,34.5-110.3c-1.6-5.2-4-10.4-5.9-15.6c15-7,29.8-14.1,44.8-21.1C1410.2,245.6,1411.9,249.3,1413.6,253z"/>
		<path class="st0" d="M1254.6,1175.3c8.3-7.1,16.9-13.9,24.9-21.3c27.9-25.8,48.1-56.8,61.7-92.1c1.4-3.7,3.4-6,7.1-7.8
			c27.3-12.6,54.4-25.6,81.8-38.2c2.4-1.1,5.9-1.4,8.5-0.5c46.3,15.4,93.2,17.7,140.7,6c0.9-0.3,1.9-0.2,2.9-0.2
			C1473,1072.5,1363.9,1123.9,1254.6,1175.3z"/>
		<path class="st0" d="M892.2,1093.6c5.3,8.2,10.4,16.6,16.1,24.4c39,53.3,91,86.4,155.9,99c35.8,6.9,71.5,5.6,106.8-3.3
			c0.6-0.2,1.4,0,2,0c-61.2,28.8-122.4,57.6-183.6,86.4C957,1231.3,924.5,1162.5,892.2,1093.6z"/>
		<path class="st0" d="M1237.2,711.6c69.6-32.7,139-66,208.9-98.2c77.6-35.7,174.1-9.2,222.2,61.4c43.6,64.2,46.2,131.3,8.5,198.9
			c-34.6,62.1-108,97.5-178.7,88.6c-21-2.6-41-8.4-59.9-17.9c-3.2-1.6-5.8-1.5-9-0.1c-45.1,21.4-90.2,42.5-135.4,63.7
			c-3.4,1.6-5,3.7-5.9,7.3c-16.2,63.1-54.6,107.1-115.6,130c-77.2,28.9-164.9,0.7-212-66.9c-47.1-67.6-43.7-158,8.5-221.1
			c18.3-22.1,40.7-38.7,66.7-50.8C1102.6,775,1169.9,743.3,1237.2,711.6C1237.1,711.5,1237.1,711.6,1237.2,711.6z M1061,956
			c-2.3,1.1-3.9,1.8-5.5,2.6c-14.2,6.7-28.5,13.3-42.6,20.1c-11.2,5.3-14.7,15.3-9.6,26.6c4.6,10,9.3,19.9,14.1,29.8
			c5.5,11.5,15.2,15.1,26.8,9.6c14.2-6.7,28.5-13.3,42.6-20.1c1.6-0.8,3.2-1.5,5.3-2.5c1.1,2.3,1.9,4,2.6,5.6
			c6.7,14.2,13.3,28.5,20.1,42.6c5.4,11.4,15.1,14.7,26.5,9.4c9.8-4.6,19.6-9.2,29.4-13.8c12.4-5.9,15.8-15.1,9.9-27.9
			c-6.5-14-13.1-27.9-19.7-41.7c-0.8-1.6-1.5-3.2-2.5-5.4c2.3-1.1,3.9-1.8,5.5-2.6c14.2-6.7,28.5-13.3,42.6-20.1
			c11.3-5.3,14.8-15.1,9.6-26.4c-4.6-10-9.3-19.9-14.1-29.8c-5.5-11.5-15.4-15.1-26.9-9.8c-14.2,6.7-28.5,13.3-42.6,20.1
			c-1.6,0.8-3.2,1.5-5.3,2.5c-1-2.2-1.8-3.9-2.6-5.5c-6.7-14.2-13.3-28.5-20.1-42.6c-5.4-11.3-15.2-14.7-26.6-9.5
			c-9.2,4.2-18.4,8.7-27.5,13c-14.7,6.9-17.8,15.6-11,30.2C1046.6,925.3,1053.6,940.2,1061,956z M1455.2,730.2
			c8.7,18.3,30.1,26.1,48.3,17.6c18.4-8.6,26.4-30.6,17.8-48.8c-8.6-18.2-30.6-26.1-48.9-17.3
			C1454.2,690.4,1446.5,711.9,1455.2,730.2z M1600.9,782.7c18.5-8.6,26.4-30.4,17.8-48.8c-8.6-18-30.4-26-48.5-17.5
			c-18.2,8.5-26.2,30.1-17.8,48.3C1560.9,783.5,1582.4,791.3,1600.9,782.7z M1468.6,844.9c18.2-8.6,26.1-30.1,17.7-48.4
			c-8.4-18.2-30.6-26.3-48.9-17.7c-18.2,8.6-26,30.2-17.6,48.4C1428.5,845.8,1450.2,853.6,1468.6,844.9z M1565.8,880.1
			c18.4-8.6,26.4-30.5,17.8-48.8c-8.5-18-30.4-26-48.5-17.6c-18.1,8.4-26.1,30.1-17.8,48.3C1525.8,880.7,1547.3,888.7,1565.8,880.1z
			"/>
		<path class="st1" d="M1061,956c-7.4-15.7-14.4-30.7-21.5-45.7c-6.9-14.6-3.7-23.3,11-30.2c9.2-4.3,18.3-8.7,27.5-13
			c11.3-5.2,21.1-1.8,26.6,9.5c6.9,14.2,13.4,28.4,20.1,42.6c0.8,1.6,1.5,3.3,2.6,5.5c2.1-1,3.7-1.7,5.3-2.5
			c14.2-6.7,28.4-13.4,42.6-20.1c11.4-5.3,21.4-1.7,26.9,9.8c4.8,9.9,9.5,19.8,14.1,29.8c5.2,11.3,1.6,21.1-9.6,26.4
			c-14.2,6.8-28.5,13.4-42.6,20.1c-1.6,0.8-3.2,1.5-5.5,2.6c1,2.2,1.8,3.8,2.5,5.4c6.6,13.9,13.2,27.9,19.7,41.7
			c5.9,12.6,2.5,22-9.9,27.9c-9.8,4.6-19.6,9.2-29.4,13.8c-11.4,5.3-21,2-26.5-9.4c-6.9-14.2-13.4-28.4-20.1-42.6
			c-0.8-1.6-1.5-3.3-2.6-5.6c-2.1,1-3.7,1.7-5.3,2.5c-14.2,6.7-28.4,13.4-42.6,20.1c-11.5,5.4-21.3,1.9-26.8-9.6
			c-4.8-9.9-9.5-19.8-14.1-29.8c-5.2-11.3-1.6-21.3,9.6-26.6c14.2-6.8,28.4-13.4,42.6-20.1C1057.1,957.8,1058.9,957,1061,956z"/>
		<path class="st2" d="M1455.2,730.2c-8.7-18.3-1-39.8,17.1-48.5c18.3-8.7,40.4-0.9,48.9,17.3s0.5,40.2-17.8,48.8
			C1485.3,756.2,1463.8,748.4,1455.2,730.2z"/>
		<path class="st1" d="M1600.9,782.7c-18.5,8.7-39.9,0.7-48.6-17.9c-8.4-18.2-0.5-39.8,17.8-48.3c18.1-8.5,39.9-0.5,48.5,17.5
			C1627.3,752.3,1619.3,774.1,1600.9,782.7z"/>
		<path class="st2" d="M1467.2,843.4c-18.5,8.7-40.2,0.8-48.7-17.6c-8.5-18.3-0.6-39.8,17.6-48.4c18.3-8.7,40.5-0.6,48.9,17.7
			C1493.2,813.4,1485.4,834.8,1467.2,843.4z"/>
		<path class="st1" d="M1565.8,880.1c-18.5,8.6-40,0.6-48.5-18c-8.3-18.2-0.4-39.9,17.8-48.3c18.1-8.4,40-0.4,48.5,17.6
			C1592.2,849.6,1584.2,871.5,1565.8,880.1z"/>
		<path class="st1" d="M1256.3,782l-62.5,30.5c-6.5,3.2-9.2,11-6,17.5l0,0c3.2,6.5,11,9.2,17.5,6l62.5-30.5c6.5-3.2,9.2-11,6-17.5
			l0,0C1270.5,781.6,1262.7,778.9,1256.3,782z"/>
		<path class="st1" d="M1349.6,736.4l-62.5,30.5c-6.5,3.2-9.2,11-6,17.5l0,0c3.2,6.5,11,9.2,17.5,6l62.5-30.5c6.5-3.2,9.2-11,6-17.5
			l0,0C1363.9,736,1356,733.3,1349.6,736.4z"/>
	</g>
	<g>
		<path class="st3" d="M833.8,1314.8l-573.9-108.6c-5.9-1.1-11.5,2.8-12.6,8.7l-43.6,230.3c-1.1,5.9,2.8,11.5,8.7,12.6l573.9,108.6
			c5.9,1.1,11.5-2.8,12.6-8.7l43.6-230.3C843.5,1321.6,839.6,1315.9,833.8,1314.8z"/>
		<path class="st1" d="M652.4,1022.4l-116.9-22.1c-5.9-1.1-11.5,2.8-12.6,8.7l-39,206.4c-1.1,5.9,2.8,11.5,8.7,12.6l116.9,22.1
			c5.9,1.1,11.5-2.8,12.6-8.7l39-206.4C662.2,1029.3,658.3,1023.6,652.4,1022.4z"/>
		
			<ellipse transform="matrix(0.186 -0.9826 0.9826 0.186 -348.8219 1317.7659)" class="st2" cx="620.9" cy="869.4" rx="137" ry="137"/>
		<path class="st2" d="M417.3,1149.6l-116.9-22.2c-5.9-1.1-11.5,2.8-12.6,8.7L280,1177c-1.1,5.9,2.8,11.5,8.7,12.6l116.9,22.2
			c5.9,1.1,11.5-2.8,12.6-8.7l7.8-40.9C427.1,1156.4,423.2,1150.7,417.3,1149.6z"/>
	</g>
</g>
</svg>
