<?xml version="1.0" encoding="utf-8"?>
<!-- Generator: Adobe Illustrator 19.2.0, SVG Export Plug-In . SVG Version: 6.00 Build 0)  -->
<svg version="1.1" id="Layer_1" xmlns="http://www.w3.org/2000/svg" xmlns:xlink="http://www.w3.org/1999/xlink" x="0px" y="0px"
	 viewBox="0 0 1971.2 1971.2" style="enable-background:new 0 0 1971.2 1971.2;" xml:space="preserve">
<style type="text/css">
	.st0{fill:#FFFFFF;}
	.st1{fill:#FC4349;}
	.st2{fill:#2C3E50;}
</style>
<circle class="st0" cx="985.6" cy="985.6" r="985.6"/>
<title>google-pin</title>
<title>Layer 1</title>
<g>
	<g>
		<path class="st1" d="M1579.7,653c-69.6-56.8-137.6-112.3-206.6-168.6c15.9-19.6,32.6-40.1,49.4-60.6
			c10.7-13.1,21.2-26.5,32.1-39.4c21.8-26,55.4-29.8,81.9-8.8c39.4,31.4,78.7,63.1,117.4,95.3c24.5,20.2,28.5,53.2,9.2,78
			C1636,583.9,1607.8,618.1,1579.7,653z"/>
		<path class="st1" d="M828.3,1364.7c5.6-78,10.8-152.9,16-226.8c67.6,55.2,135,110.2,201.9,164.9
			C976,1322.7,903,1343.5,828.3,1364.7z"/>
		
			<rect x="853.3" y="761.1" transform="matrix(0.6302 -0.7764 0.7764 0.6302 -245.7875 1270.6755)" class="st1" width="715.6" height="264.5"/>
	</g>
	<g>
		<path class="st2" d="M295.9,456c5.5-22.7,13.3-44.2,30.3-61.3c23.4-23.6,52.3-32.7,84.9-32.7c219,0.1,438-0.1,656.9,0.1
			c42.2,0,84.6-0.9,126.7,1.8c50.2,3.2,90.4,46.2,93.4,96.8c1.2,20.5,0.7,41.2,0.7,61.7c0,3-0.7,7-2.6,9.1
			c-32.5,36.4-65.2,72.6-97.8,108.9c-0.2,0.3-0.7,0.2-3,0.6c-0.2-3.8-0.5-7.5-0.6-11.1c0-49.9-0.3-100,0.2-149.9
			c0.1-9.5-1.7-13.2-12.4-13.2c-253.6,0.3-507,0.3-760.6,0.3c-3.3,0-6.5,0-11,0c-0.3,5-0.8,9.3-0.8,13.6c0,339.5,0,679-0.3,1018.6
			c0,10.4,2.5,13.6,13.3,13.6c252.8-0.3,505.6-0.3,758.4,0c10.6,0,13.5-2.8,13.5-13.4c-0.4-67.6-0.1-135.2-0.4-202.8
			c-0.1-8.7,2.3-15.2,8.2-21.6c29.8-32.9,59.3-66,89-99.1c1.4-1.6,3.1-3,6.4-6c0.3,5.1,0.8,8.4,0.8,11.8c0.1,107.6,0,215.4,0.1,323
			c0,45.1-18.1,80.4-59,100.2c-15.9,7.7-35.2,11.9-53,12c-256.1,0.7-512.2,0.6-768.3,0.3c-44.6,0-79.8-18.2-100.8-58.7
			c-5.7-10.9-8.2-23.4-12.1-35.2C295.9,1167.5,295.9,811.8,295.9,456z"/>
		<path class="st2" d="M790.8,710.9c-80.5,0-161,0.3-241.4-0.3c-11.1-0.1-23-2.1-32.9-6.7c-21.9-10.4-31.7-34.3-26.3-58.6
			c4.9-21.7,25-37.2,50.4-39.1c1.8-0.1,3.7-0.1,5.5-0.1c164.3,0,328.5,0,492.7,0c30.7,0,52,17.3,56.3,45.2
			c4.2,27.2-15.8,54.4-43.2,58.3c-6.5,1-13.1,1.2-19.8,1.2C951.8,711,871.3,711,790.8,710.9z"/>
		<path class="st2" d="M1022.6,826.5c-17.6,19.8-33.6,37.7-49.7,55.6c-12.5,13.9-24.8,28.1-37.8,41.5c-3.1,3.2-8.6,5.8-13.1,5.9
			c-126.3,0.3-252.8,0.3-379.1,0.2c-27.5,0-50.1-19-53.2-43.3c-3.6-27.8,11.2-51.4,36.9-58.6c5.6-1.6,11.6-1.8,17.4-1.9
			c155.7-0.1,311.5-0.1,467.3-0.1C1014.3,825.9,1017.2,826.3,1022.6,826.5z"/>
		<path class="st2" d="M828.3,1042c-20.1,35.3-38.5,67.9-57.3,100.1c-1.4,2.3-5.9,3.9-9,3.9c-73.9,0.2-147.7,0.4-221.5,0
			c-29.1-0.2-50.9-22.4-51.5-50.9c-0.7-28.5,20.3-50.8,49.5-52.9c4.4-0.3,8.8-0.3,13.2-0.3c87.1,0,174.2,0,261.2,0
			C817.3,1042,821.6,1042,828.3,1042z"/>
		<path class="st2" d="M706.8,1365.2c-15.9,0-31.7,0-47.4,0c-38.5,0-77.1,0.3-115.6-0.1c-36.2-0.4-58.5-25.9-54-60.8
			c3.2-25.1,25.4-43.1,54.3-43.2c58-0.3,116-0.1,174-0.1c5.4,0,10.8,0,18.2,0C726.3,1296.5,716.7,1330.2,706.8,1365.2z"/>
	</g>
</g>
</svg>
