<?xml version="1.0" encoding="utf-8"?>
<!-- Generator: Adobe Illustrator 19.2.0, SVG Export Plug-In . SVG Version: 6.00 Build 0)  -->
<svg version="1.1" id="Layer_1" xmlns="http://www.w3.org/2000/svg" xmlns:xlink="http://www.w3.org/1999/xlink" x="0px" y="0px"
	 viewBox="0 0 1104 892" style="enable-background:new 0 0 1104 892;" xml:space="preserve">
<style type="text/css">
	.st0{fill:none;stroke:#ffffff;stroke-width:50;stroke-miterlimit:10;}
	.st1{fill:none;stroke:#ffffff;stroke-width:20;stroke-miterlimit:10;}
    
    .rotate {
    -webkit-animation: clockwise 10s infinite linear;
    -moz-animation: clockwise 10s infinite linear;
    animation: clockwise 10s infinite linear;
    transform-origin: 50% 50%;
    }

    @-webkit-keyframes clockwise {
    0%   { -webkit-transform: rotate(0deg); }
    50% { -webkit-transform: rotate(8deg); }
    }
    @-moz-keyframes clockwise {
    0%   { -moz-transform: rotate(0deg); }
    50% { -moz-transform: rotate(8deg); }
    }
    @keyframes clockwise {
    0%   { transform: rotate(0deg); }
    50% { transform: rotate(8deg); }
    }
    
    .move {
    -webkit-animation: mov 10s infinite ease;
    -moz-animation: mov 10s infinite ease;
     animation: mov 10s infinite ease;
}
   @keyframes mov {
    0%   { -webkit-transform: translate(0, 0); }
    50%   { -webkit-transform: translate(45px, 0); }
    }
    @-moz-keyframes mov {
    0%   { -moz-transform: translate(0, 0); }
    50% { -moz-transform: translate(45px, 0); }
    }
    @keyframes mov {
    0%   { transform: translate(0, 0); }
    50% { transform: translate(45px, 0); }
    }
    
     @-webkit-keyframes pulse { 
    0% { -webkit-transform: scale(1); } 
    50% { -webkit-transform: scale(1.1); } 
    100% { -webkit-transform: scale(1); } 
    } 
    @-moz-keyframes pulse { 
    0% { -moz-transform: scale(1); } 
    50% { -moz-transform: scale(1.1); } 
    100% { -moz-transform: scale(1); } 
    } 
    @keyframes pulse { 
    0% { transform: scale(1); } 
    50% { transform: scale(1.1); } 
    100% { transform: scale(1); } 
    } 
    .pulse { 
    -webkit-animation: pulse 5s infinite ease;
    animation: pulse 5s infinite ease;
    transform-origin: 50% 50%;
    }
</style>
    <g class="move">
        <path class="st0" d="M783.8,436.9c-82.5,0-155.6,31.7-199.9,80.2c-108.5,15.5-189.3,75.8-189.3,147.8
            c0,83.8,109.4,151.7,244.3,151.7c26.6,0,52.3-2.7,76.3-7.6c21.7,4.9,44.7,7.6,68.5,7.6c135.2,0,244.9-85,244.9-189.8
            S919.1,436.9,783.8,436.9z"/>
    </g>
    <g class="pulse">
        <g class="rotate">
            <path class="st1" d="M655.4 108.1l-64.1 111c-2 3.5-.8 7.9 2.7 9.9s7.9.8 9.9-2.7l64.1-111c2-3.5.8-7.9-2.7-9.9-3.4-1.9-7.9-.7-9.9 2.7zM220.5 612.1L120 691.7c-3.1 2.5-3.7 7.1-1.2 10.2 2.5 3.1 7.1 3.7 10.2 1.2l100.5-79.6c3.1-2.5 3.7-7.1 1.2-10.2-2.5-3.1-7.1-3.6-10.2-1.2zM175.6 484.4l-128.1-5.2c-4-.2-7.4 3-7.6 7-.2 4 3 7.4 7 7.6L175 499c4 .2 7.4-3 7.6-7 0-4-3-7.4-7-7.6zM304.2 230.6l-71.3-106.5c-2.2-3.3-6.8-4.2-10.1-2s-4.2 6.8-2 10.1l71.3 106.5c2.2 3.3 6.8 4.2 10.1 2s4.2-6.8 2-10.1zM821.2 274.4l-115.9 54.7c-3.6 1.7-5.1 6.1-3.5 9.7 1.7 3.6 6.1 5.1 9.7 3.5l115.9-54.8c3.6-1.7 5.1-6.1 3.5-9.7-1.7-3.6-6.1-5.1-9.7-3.4zM449.1 57.8l-5.2 128.1c-.2 4 3 7.4 7 7.6 4 .2 7.4-3 7.6-7l5.2-128.1c.2-4-3-7.4-7-7.6-4-.2-7.4 3-7.6 7zM88.5 281.5L208 327.7c3.8 1.5 7.9-.4 9.4-4.2 1.5-3.8-.4-7.9-4.2-9.4L93.7 267.9c-3.8-1.5-7.9.4-9.4 4.2-1.4 3.7.5 7.9 4.2 9.4z"/>
        </g>
    </g>
    <path class="st1" d="M525.2 466.9c32-35.1 79.1-61.3 133.9-73.2-22.3-91-104.5-158.4-202.3-158.4-115.1 0-208.3 93.3-208.3 208.3 0 69.9 34.5 131.9 87.4 169.7 1.1-71.3 81.6-131 189.3-146.4z" />
</svg>
