<?xml version="1.0" encoding="utf-8"?>
<!-- Generator: Adobe Illustrator 19.2.0, SVG Export Plug-In . SVG Version: 6.00 Build 0)  -->
<svg version="1.1" id="Layer_1" xmlns="http://www.w3.org/2000/svg" xmlns:xlink="http://www.w3.org/1999/xlink" x="0px" y="0px"
	 viewBox="0 0 1104 892" style="enable-background:new 0 0 1104 892;" xml:space="preserve">
<style type="text/css">
	.st0{fill:none;stroke:#ffffff;stroke-width:50;stroke-miterlimit:10;}
	.st1{fill:none;stroke:#ffffff;stroke-width:24;stroke-miterlimit:10;}
<!--move back and forth-->
    .move {
        -webkit-animation: mov 20s infinite ease;
        -moz-animation: mov 20s infinite ease;
         animation: mov 20s infinite ease;
    }
   @keyframes mov {
        0%   { -webkit-transform: translate(0, 0); }
        50%   { -webkit-transform: translate(45px, 0); }
    }
    @-moz-keyframes mov {
        0%   { -moz-transform: translate(0, 0); }
        50% { -moz-transform: translate(45px, 0); }
    }
    @keyframes mov {
        0%   { transform: translate(0, 0); }
        50% { transform: translate(45px, 0); }
    }
<!--move down-->
    .moveDown {
        -webkit-animation: movDown 3s infinite ease;
        -moz-animation: movDown 3s infinite ease;
         animation: movDown 3s infinite ease;
    }
    @-webkit-keyframes movDown {
        0%   { -webkit-transform: translate(0, 0); }
        90%   { -webkit-transform: translate(0, 80px); }
        100%   { -webkit-transform: translate(0, 0); }
    }
    @-moz-keyframes movDown {
        0%   { -moz-transform: translate(0, 0); }
        90% { -moz-transform: translate(0, 80px); }
        100%   { -moz-transform: translate(0, 0); }
    }
        @keyframes movDown {
        0%   { transform: translate(0, 0); }
        90% { transform: translate(0, 80px); }
        100%   { transform: translate(0, 0); }
    }
<!--fade-->
    @-webkit-keyframes fadeOut {
        0% {opacity: 0;}
        50% {opacity: .8;}
        100% {opacity: 0;}
    }
    @keyframes fadeOut{
        0% {opacity: 0;}
        50% {opacity: .8;}
        100% {opacity: 0;}
    }
    .fadeOut {
        -webkit-animation: fadeOut 3s infinite ease;
        animation: fadeOut 3s infinite ease;
    }
<!--move down 2222222-->
    .moveDown2 {
        -webkit-animation: movDown2 5s infinite ease;
        -moz-animation: movDown2 5s infinite ease;
         animation: movDown2 5s infinite ease;
    }
    @-webkit-keyframes movDown2 {
        0%   { -webkit-transform: translate(0, 0); }
        90%   { -webkit-transform: translate(0, 80px); }
        100%   { -webkit-transform: translate(0, 0); }
    }
    @-moz-keyframes movDown2 {
        0%   { -moz-transform: translate(0, 0); }
        90% { -moz-transform: translate(0, 80px); }
        100%   { -moz-transform: translate(0, 0); }
    }
        @keyframes movDown2 {
        0%   { transform: translate(0, 0); }
        90% { transform: translate(0, 80px); }
        100%   { transform: translate(0, 0); }
    }
<!--fade-->
    @-webkit-keyframes fadeOut2 {
        0% {opacity: 0;}
        50% {opacity: .8;}
        100% {opacity: 0;}
    }
    @keyframes fadeOut2 {
        0% {opacity: 0;}
        50% {opacity: .8;}
        100% {opacity: 0;}
    }
    .fadeOut2 {
        -webkit-animation: fadeOut 5s infinite ease;
        animation: fadeOut 5s infinite ease;
    }
   
<!--move down333333333333333-->
    .moveDown3 {
        -webkit-animation: movDown3 4.3s infinite ease;
        -moz-animation: movDown3 4.3s infinite ease;
         animation: movDown3 4.3s infinite ease;
    }
    @-webkit-keyframes movDown3 {
        0%   { -webkit-transform: translate(0, 0); }
        90%   { -webkit-transform: translate(0, 80px); }
        100%   { -webkit-transform: translate(0, 0); }
    }
    @-moz-keyframes movDown3 {
        0%   { -moz-transform: translate(0, 0); }
        90% { -moz-transform: translate(0, 80px); }
        100%   { -moz-transform: translate(0, 0); }
    }
        @keyframes movDown3 {
        0%   { transform: translate(0, 0); }
        90% { transform: translate(0, 80px); }
        100%   { transform: translate(0, 0); }
    }
<!--fade-->
    @-webkit-keyframes fadeOut3 {
        0% {opacity: 0;}
        50% {opacity: .8;}
        100% {opacity: 0;}
    }
    @keyframes fadeOut3 {
        0% {opacity: 0;}
        50% {opacity: .8;}
        100% {opacity: 0;}
    }
    .fadeOut3 {
        -webkit-animation: fadeOut 4.3s infinite ease;
        animation: fadeOut 4.3s infinite ease;
    }
   
</style>
<g class="move">
    <path class="st0" d="M664,30.6c-111.5,0-210.2,42.8-270.1,108.3c-146.6,20.9-255.8,102.4-255.8,199.7c0,113.2,147.9,205,330.2,205
        c36,0,70.6-3.6,103.1-10.2c29.4,6.6,60.5,10.2,92.6,10.2c182.7,0,330.9-114.9,330.9-256.5S846.7,30.6,664,30.6z"/>

<g class="fadeOut">
    <g class="moveDown">
        <path class="st1" d="M686,556.3l-2.4,0c-5.4,0-9.8,4.4-9.8,9.8L672.9,772c0,5.4,4.4,9.8,9.8,9.8l2.4,0c5.4,0,9.8-4.4,9.8-9.8
	l0.8-205.9C695.8,560.7,691.4,556.3,686,556.3z"/>
    </g>
</g>
    <g class="fadeOut2">
    <g class="moveDown2">
        <path class="st1" d="M546.1,588.9l-2.4,0c-5.4,0-9.8,4.4-9.8,9.8L533,804.6c0,5.4,4.4,9.8,9.8,9.8l2.4,0c5.4,0,9.8-4.4,9.8-9.8
	l0.8-205.9C556,593.4,551.5,588.9,546.1,588.9z"/>
    </g>
</g>
    <g class="fadeOut3">
    <g class="moveDown3">
        <path class="st1" d="M392,539.4l-2.4,0c-5.4,0-9.8,4.4-9.8,9.8l-0.8,205.9c0,5.4,4.4,9.8,9.8,9.8l2.4,0c5.4,0,9.8-4.4,9.8-9.8
	l0.8-205.9C401.8,543.8,397.3,539.5,392,539.4z"/>
    </g>
</g>
    </g>
</svg>
