<?xml version="1.0" encoding="utf-8"?>
<!-- Generator: Adobe Illustrator 19.2.0, SVG Export Plug-In . SVG Version: 6.00 Build 0)  -->
<svg version="1.1" id="Layer_1" xmlns="http://www.w3.org/2000/svg" xmlns:xlink="http://www.w3.org/1999/xlink" x="0px" y="0px"
	 viewBox="0 0 1104 892" style="enable-background:new 0 0 1104 892;" xml:space="preserve">
<style type="text/css">
	.st0{fill:#ffffff;}
<!--top-->    
    .moveTop {
        -webkit-animation: movTop 10s infinite ease;
        -moz-animation: movTop 10s infinite ease;
         animation: movTop 10s infinite ease;
    }
    @keyframes movTop {
        0%   { -webkit-transform: translate(0, 0); }
        50%   { -webkit-transform: translate(45px, 0); }
    }
    @-moz-keyframes movTop {
        0%   { -moz-transform: translate(0, 0); }
        50% { -moz-transform: translate(45px, 0); }
    }
    @keyframes movTop {
        0%   { transform: translate(0, 0); }
        50% { transform: translate(45px, 0); }
    }
<!--Mid-->
    .moveMid {
        -webkit-animation: movMid 15s infinite ease;
        -moz-animation: movMid 15s infinite ease;
         animation: movMid 15s infinite ease;
    }
    @keyframes movMid {
        0%   { -webkit-transform: translate(0, 0); }
        50%   { -webkit-transform: translate(-49px, 0); }
    }
    @-moz-keyframes movMid {
        0%   { -moz-transform: translate(0, 0); }
        50% { -moz-transform: translate(-49px, 0); }
    }
    @keyframes movMid {
        0%   { transform: translate(0, 0); }
        50% { transform: translate(-49px, 0); }
    }
<!--bot-->
    .moveBot {
        -webkit-animation: movBot 9s infinite ease;
        -moz-animation: movBot 9s infinite ease;
         animation: movBot 9s infinite ease;
    }
    @keyframes movBot {
        0%   { -webkit-transform: translate(0, 0); }
        50%   { -webkit-transform: translate(-22px, 0); }
    }
    @-moz-keyframes movBot {
        0%   { -moz-transform: translate(0, 0); }
        50% { -moz-transform: translate(-22px, 0); }
    }
    @keyframes movBot {
        0%   { transform: translate(0, 0); }
        50% { transform: translate(-22px, 0); }
    }
</style>
<!--cloud-->
<g class="moveMid">
	<path class="st0" d="M144.5,485.4c-10.3,0-18.6-8.3-18.6-18.6c0-97.9,79.6-177.5,177.5-177.5c24,0,47.5,4.8,69.3,14.1
		C381,186.2,479,93.3,598.3,93.3c124.7,0,226.2,101.5,226.2,226.2c0,1.9,0,3.8-0.1,5.7c76.6,3.4,141.3,61.5,152.2,137.9
		c1.4,10.2-5.6,19.6-15.8,21.1c-10.2,1.4-19.6-5.6-21.1-15.8c-8.6-60.5-61.2-106.1-122.4-106.1c-3.4,0-7,0.2-11.4,0.6
		c-5.6,0.5-11.1-1.5-15-5.6c-3.9-4-5.8-9.6-5.1-15.2c1-8.4,1.5-15.8,1.5-22.6c0-104.2-84.8-188.9-188.9-188.9
		s-188.9,84.8-188.9,188.9c0,4,0.3,8.1,0.6,12.5l0.1,1.3c0.5,7.1-3.1,13.9-9.2,17.4c-6.1,3.6-13.8,3.3-19.7-0.6
		c-23.1-15.4-49.9-23.5-77.7-23.5c-77.3,0-140.3,62.9-140.3,140.3C163.1,477,154.8,485.4,144.5,485.4z"/>
</g>
<!--top line-->
<g class="moveTop">
	<path class="st0" d="M966,569.3H138c-10.3,0-18.6-8.3-18.6-18.6s8.3-18.6,18.6-18.6h828c10.3,0,18.6,8.3,18.6,18.6
		S976.3,569.3,966,569.3z"/>
</g>
<!--mid lines-->
<g class="moveMid">
	<path class="st0" d="M581,684H138c-10.3,0-18.6-8.3-18.6-18.6s8.3-18.6,18.6-18.6h443c10.3,0,18.6,8.3,18.6,18.6S591.3,684,581,684
		z"/>
	<path class="st0" d="M966,684H682.3c-10.3,0-18.6-8.3-18.6-18.6s8.3-18.6,18.6-18.6H966c10.3,0,18.6,8.3,18.6,18.6
		S976.3,684,966,684z"/>
</g>
<!--bot lines-->
<g class="moveBot">
	<path class="st0" d="M966,798.7H365.7c-10.3,0-18.6-8.3-18.6-18.6s8.3-18.6,18.6-18.6H966c10.3,0,18.6,8.3,18.6,18.6
		S976.3,798.7,966,798.7z"/>
	<path class="st0" d="M274.5,798.7H138c-10.3,0-18.6-8.3-18.6-18.6s8.3-18.6,18.6-18.6h136.5c10.3,0,18.6,8.3,18.6,18.6
		S284.8,798.7,274.5,798.7z"/>
</g>
</svg>
