<?xml version="1.0" encoding="utf-8"?>
<!-- Generator: Adobe Illustrator 19.2.0, SVG Export Plug-In . SVG Version: 6.00 Build 0)  -->
<svg version="1.1" id="Layer_1" xmlns="http://www.w3.org/2000/svg" xmlns:xlink="http://www.w3.org/1999/xlink" x="0px" y="0px"
	 viewBox="0 0 1104 892" style="enable-background:new 0 0 1104 892;" xml:space="preserve">
<style type="text/css">
	.st0{fill:#FC4349;}
	.st1{fill:none;stroke:#ffffff;stroke-width:50;stroke-miterlimit:10;}
	.st2{fill:none;stroke:#ffffff;stroke-width:31;stroke-miterlimit:10;}
<!--Middle light-->
    @-webkit-keyframes flashMid {
        0%, 50%, 100% {opacity: 1;}
        25%, 75% {opacity: 0;}
    }
    @keyframes flashMid {
        0%, 50%, 100% {opacity: 1;}
        25%, 75% {opacity: 0;}
    }
    .flashMid {
        -webkit-animation: flashMid 5s infinite ease;
        animation: flashMid 5s infinite ease;
    }
<!--Move-->    
    .move {
        -webkit-animation: mov 20s infinite ease;
        -moz-animation: mov 20s infinite ease;
         animation: mov 20s infinite ease;
    }
    @keyframes mov {
        0%   { -webkit-transform: translate(0, 0); }
        50%   { -webkit-transform: translate(45px, 0); }
    }
    @-moz-keyframes mov {
        0%   { -moz-transform: translate(0, 0); }
        50% { -moz-transform: translate(45px, 0); }
    }
    @keyframes mov {
        0%   { transform: translate(0, 0); }
        50% { transform: translate(45px, 0); }
    }
<!--move down-->
    .moveDown {
        -webkit-animation: movDown 2s infinite linear;
        -moz-animation: movDown 2s infinite linear;
         animation: movDown 2s infinite linear;
    }
    @-webkit-keyframes movDown {
        0%   { -webkit-transform: translate(0, 0); }
        90%   { -webkit-transform: translate(0, 50px); }
        100%   { -webkit-transform: translate(0, 0); }
    }
    @-moz-keyframes movDown {
        0%   { -moz-transform: translate(0, 0); }
        90% { -moz-transform: translate(0, 50px); }
        100%   { -moz-transform: translate(0, 0); }
    }
        @keyframes movDown {
        0%   { transform: translate(0, 0); }
        90% { transform: translate(0, 50px); }
        100%   { transform: translate(0, 0); }
    }
<!--fade-->
    @-webkit-keyframes fadeOut {
         0% {opacity: 0;}
        50% {opacity: .8;}
        100% {opacity: 0;}
    }
    @keyframes fadeOut{
         0% {opacity: 0;}
        50% {opacity: .8;}
        100% {opacity: 0;}
    }
    .fadeOut {
        -webkit-animation: fadeOut 2s infinite ease;
        animation: fadeOut 2s infinite ease;
    }
</style>
<g class="move">
<!--light-->
<g class="flashMid">	
	<path class="st0" d="M510.9,480.6c4.5,0,9,0,13.5,0c6,0,12,0,17.9,0c7.5,0,15,0,22.5,0s15,0,22.5,0c6.7,0,13.5,0,20.2,0
		s13.5,0,20.2,0c8.2,0.1,16.4,0.4,24.6,0.5c-22.1,26.7-44.2,53.5-66.4,80.1c-14.4,17.3-28.9,34.5-44.2,52.7c36,0,70.5,0,105.1,0
		c1.3,4.2-2.5,5.5-4.5,7.3c-80,75.6-160.2,151.1-240.4,226.7c-2.2,2.1-3.9,4.8-7.8,5c4.5-12.8,12.3-24.3,18.8-36.3
		c21.2-39.1,42.8-78,64.2-116.9c1.5-2.8,2.9-5.7,4.6-9.2c-33.4,0-65.9,0-100.3,0c33.1-70.4,65.7-139.8,98.3-209.3
		C490.1,481,500.5,480.8,510.9,480.6z"/>
</g>
<!--cloud-->
<path class="st1" d="M659,35.1c-98.2,0-185.1,37.7-237.8,95.4C292.2,148.9,196,220.7,196,306.3c0,99.7,130.2,180.5,290.7,180.5
	c31.7,0,62.2-3.2,90.8-9c25.9,5.8,53.2,9,81.6,9c160.9,0,291.4-101.2,291.4-225.9S819.9,35.1,659,35.1z"/>
<!--rain-->
    <g class="fadeOut">
        <g class="moveDown">
    <path class="st2" d="M257.2,486.2l-1.9-1.1c-4.1-2.4-9.4-0.9-11.8,3.2l-90.6,157c-2.4,4.1-0.9,9.4,3.2,11.8l1.9,1.1
        c4.1,2.4,9.4,0.9,11.8-3.2l90.6-157C262.8,493.9,261.3,488.6,257.2,486.2z"/>
    <path class="st2" d="M761.6,553.9l-1.9-1.1c-4.1-2.4-9.4-0.9-11.8,3.2l-90.6,157c-2.4,4.1-0.9,9.4,3.2,11.8l1.9,1.1
        c4.1,2.4,9.4,0.9,11.8-3.2l90.6-157C767.1,561.6,765.7,556.2,761.6,553.9z"/>
    <path class="st2" d="M919.6,472.6l-1.9-1.1c-4.1-2.4-9.4-0.9-11.8,3.2l-90.6,157c-2.4,4.1-0.9,9.4,3.2,11.8l1.9,1.1
        c4.1,2.4,9.4,0.9,11.8-3.2l90.6-157C925.2,480.3,923.7,475,919.6,472.6z"/>
    <path class="st2" d="M324.5,593.9l-1.9-1.1c-4.1-2.4-9.4-0.9-11.8,3.2l-90.6,157c-2.4,4.1-0.9,9.4,3.2,11.8l1.9,1.1
        c4.1,2.4,9.4,0.9,11.8-3.2l90.6-157C330.1,601.6,328.6,596.3,324.5,593.9z"/>
        </g>
    </g>
    </g>
</svg>
